<svg width="760" height="249" viewBox="0 0 760 249" fill="none" xmlns="http://www.w3.org/2000/svg">
<g clip-path="url(#clip0_61_208)">
<rect width="760" height="249" fill="#F2F6F8"/>
<g clip-path="url(#clip1_61_208)">
<rect x="280" y="25" width="200" height="199" rx="6" fill="white"/>
<mask id="path-3-inside-1_61_208" fill="white">
<path d="M280 25H480V64H280V25Z"/>
</mask>
<path d="M280 25H480V64H280V25Z" fill="#E1FAF2"/>
<path d="M480 63H280V65H480V63Z" fill="black" fill-opacity="0.15" mask="url(#path-3-inside-1_61_208)"/>
<path d="M301.7 40.6V49.7H292.6V51H301.7C302.415 51 303 50.415 303 49.7V40.6H301.7Z" fill="black"/>
<path d="M299.1 38H291.3C290.585 38 290 38.585 290 39.3V47.1C290 47.815 290.585 48.4 291.3 48.4H299.1C299.815 48.4 300.4 47.815 300.4 47.1V39.3C300.4 38.585 299.815 38 299.1 38ZM294.55 47.1H291.3V43.85H294.55V47.1ZM299.1 47.1H295.85V43.85H299.1V47.1ZM299.1 42.55H291.3V39.3H299.1V42.55Z" fill="black"/>
<path d="M314.419 49.5H312.437V41.4473C312.437 40.8867 312.546 40.415 312.765 40.0322C312.988 39.6449 313.3 39.3532 313.701 39.1572C314.107 38.9567 314.588 38.8564 315.144 38.8564C315.326 38.8564 315.501 38.8701 315.67 38.8975C315.839 38.9202 316.003 38.9499 316.162 38.9863L316.142 40.4697C316.055 40.4469 315.964 40.431 315.868 40.4219C315.772 40.4128 315.661 40.4082 315.533 40.4082C315.296 40.4082 315.093 40.4492 314.925 40.5312C314.761 40.6087 314.635 40.7249 314.549 40.8799C314.462 41.0348 314.419 41.224 314.419 41.4473V49.5ZM315.896 42.1035V43.498H311.336V42.1035H315.896ZM316.613 45.877V45.7334C316.613 45.1911 316.691 44.6921 316.846 44.2363C317.001 43.776 317.226 43.3773 317.522 43.04C317.819 42.7028 318.183 42.4408 318.616 42.2539C319.049 42.0625 319.546 41.9668 320.106 41.9668C320.667 41.9668 321.166 42.0625 321.604 42.2539C322.041 42.4408 322.408 42.7028 322.704 43.04C323.005 43.3773 323.233 43.776 323.388 44.2363C323.543 44.6921 323.62 45.1911 323.62 45.7334V45.877C323.62 46.4147 323.543 46.9137 323.388 47.374C323.233 47.8298 323.005 48.2285 322.704 48.5703C322.408 48.9076 322.043 49.1696 321.61 49.3564C321.177 49.5433 320.681 49.6367 320.12 49.6367C319.56 49.6367 319.061 49.5433 318.623 49.3564C318.19 49.1696 317.823 48.9076 317.522 48.5703C317.226 48.2285 317.001 47.8298 316.846 47.374C316.691 46.9137 316.613 46.4147 316.613 45.877ZM318.582 45.7334V45.877C318.582 46.1868 318.609 46.4762 318.664 46.7451C318.719 47.014 318.805 47.251 318.924 47.4561C319.047 47.6566 319.206 47.8138 319.402 47.9277C319.598 48.0417 319.838 48.0986 320.12 48.0986C320.394 48.0986 320.628 48.0417 320.824 47.9277C321.02 47.8138 321.177 47.6566 321.296 47.4561C321.414 47.251 321.501 47.014 321.556 46.7451C321.615 46.4762 321.645 46.1868 321.645 45.877V45.7334C321.645 45.4326 321.615 45.1501 321.556 44.8857C321.501 44.6169 321.412 44.3799 321.289 44.1748C321.171 43.9652 321.013 43.8011 320.817 43.6826C320.621 43.5641 320.384 43.5049 320.106 43.5049C319.828 43.5049 319.591 43.5641 319.396 43.6826C319.204 43.8011 319.047 43.9652 318.924 44.1748C318.805 44.3799 318.719 44.6169 318.664 44.8857C318.609 45.1501 318.582 45.4326 318.582 45.7334ZM324.516 45.877V45.7334C324.516 45.1911 324.593 44.6921 324.748 44.2363C324.903 43.776 325.129 43.3773 325.425 43.04C325.721 42.7028 326.086 42.4408 326.519 42.2539C326.951 42.0625 327.448 41.9668 328.009 41.9668C328.569 41.9668 329.068 42.0625 329.506 42.2539C329.943 42.4408 330.31 42.7028 330.606 43.04C330.907 43.3773 331.135 43.776 331.29 44.2363C331.445 44.6921 331.522 45.1911 331.522 45.7334V45.877C331.522 46.4147 331.445 46.9137 331.29 47.374C331.135 47.8298 330.907 48.2285 330.606 48.5703C330.31 48.9076 329.946 49.1696 329.513 49.3564C329.08 49.5433 328.583 49.6367 328.022 49.6367C327.462 49.6367 326.963 49.5433 326.525 49.3564C326.092 49.1696 325.726 48.9076 325.425 48.5703C325.129 48.2285 324.903 47.8298 324.748 47.374C324.593 46.9137 324.516 46.4147 324.516 45.877ZM326.484 45.7334V45.877C326.484 46.1868 326.512 46.4762 326.566 46.7451C326.621 47.014 326.708 47.251 326.826 47.4561C326.949 47.6566 327.109 47.8138 327.305 47.9277C327.501 48.0417 327.74 48.0986 328.022 48.0986C328.296 48.0986 328.531 48.0417 328.727 47.9277C328.923 47.8138 329.08 47.6566 329.198 47.4561C329.317 47.251 329.403 47.014 329.458 46.7451C329.517 46.4762 329.547 46.1868 329.547 45.877V45.7334C329.547 45.4326 329.517 45.1501 329.458 44.8857C329.403 44.6169 329.314 44.3799 329.191 44.1748C329.073 43.9652 328.916 43.8011 328.72 43.6826C328.524 43.5641 328.287 43.5049 328.009 43.5049C327.731 43.5049 327.494 43.5641 327.298 43.6826C327.106 43.8011 326.949 43.9652 326.826 44.1748C326.708 44.3799 326.621 44.6169 326.566 44.8857C326.512 45.1501 326.484 45.4326 326.484 45.7334ZM337.101 47.8867V39H339.083V49.5H337.299L337.101 47.8867ZM332.425 45.8906V45.7471C332.425 45.182 332.489 44.6693 332.616 44.209C332.744 43.7441 332.931 43.3454 333.177 43.0127C333.423 42.68 333.726 42.4225 334.086 42.2402C334.446 42.0579 334.856 41.9668 335.316 41.9668C335.749 41.9668 336.128 42.0579 336.451 42.2402C336.779 42.4225 337.057 42.6823 337.285 43.0195C337.518 43.3522 337.704 43.7464 337.846 44.2021C337.987 44.6533 338.09 45.1478 338.153 45.6855V46C338.09 46.515 337.987 46.9935 337.846 47.4355C337.704 47.8776 337.518 48.265 337.285 48.5977C337.057 48.9258 336.779 49.181 336.451 49.3633C336.123 49.5456 335.74 49.6367 335.303 49.6367C334.842 49.6367 334.432 49.5433 334.072 49.3564C333.717 49.1696 333.416 48.9076 333.17 48.5703C332.928 48.2331 332.744 47.8366 332.616 47.3809C332.489 46.9251 332.425 46.4284 332.425 45.8906ZM334.394 45.7471V45.8906C334.394 46.196 334.416 46.4808 334.462 46.7451C334.512 47.0094 334.592 47.2441 334.701 47.4492C334.815 47.6497 334.961 47.807 335.139 47.9209C335.321 48.0303 335.542 48.085 335.802 48.085C336.139 48.085 336.417 48.0098 336.636 47.8594C336.854 47.7044 337.021 47.4925 337.135 47.2236C337.253 46.9548 337.322 46.6449 337.34 46.2939V45.3984C337.326 45.1113 337.285 44.8538 337.217 44.626C337.153 44.3936 337.057 44.1953 336.93 44.0312C336.807 43.8672 336.652 43.7396 336.465 43.6484C336.283 43.5573 336.066 43.5117 335.815 43.5117C335.56 43.5117 335.341 43.571 335.159 43.6895C334.977 43.8034 334.829 43.9606 334.715 44.1611C334.605 44.3617 334.523 44.5986 334.469 44.8721C334.419 45.141 334.394 45.4326 334.394 45.7471Z" fill="#131313"/>
<path opacity="0.5" d="M450.968 47.9268V49H445.697V47.9268H450.968ZM445.964 39.0469V49H444.645V39.0469H445.964ZM450.271 43.3262V44.3994H445.697V43.3262H450.271ZM450.899 39.0469V40.127H445.697V39.0469H450.899ZM453.743 41.6035H455.008L454.898 44.3721C454.871 45.0739 454.791 45.68 454.659 46.1904C454.527 46.7008 454.358 47.1361 454.153 47.4961C453.948 47.8516 453.718 48.1501 453.463 48.3916C453.212 48.6331 452.952 48.8359 452.684 49H452.055L452.089 47.9678L452.349 47.9609C452.499 47.7832 452.645 47.6009 452.786 47.4141C452.927 47.2227 453.057 46.9971 453.176 46.7373C453.294 46.473 453.392 46.1517 453.47 45.7734C453.552 45.3906 453.604 44.9235 453.627 44.3721L453.743 41.6035ZM454.058 41.6035H458.508V49H457.243V42.7725H454.058V41.6035ZM451.768 47.9609H459.458V51.1807H458.193V49H453.032V51.1807H451.761L451.768 47.9609ZM465.221 47.7354V43.9277C465.221 43.6361 465.161 43.3831 465.043 43.1689C464.929 42.9502 464.756 42.7816 464.523 42.6631C464.291 42.5446 464.004 42.4854 463.662 42.4854C463.343 42.4854 463.063 42.54 462.821 42.6494C462.584 42.7588 462.397 42.9023 462.261 43.0801C462.129 43.2578 462.062 43.4492 462.062 43.6543H460.798C460.798 43.39 460.866 43.1279 461.003 42.8682C461.14 42.6084 461.336 42.3737 461.591 42.1641C461.851 41.9499 462.16 41.7812 462.521 41.6582C462.885 41.5306 463.291 41.4668 463.737 41.4668C464.275 41.4668 464.749 41.5579 465.159 41.7402C465.574 41.9225 465.897 42.1982 466.13 42.5674C466.367 42.932 466.485 43.39 466.485 43.9414V47.3867C466.485 47.6328 466.506 47.8949 466.547 48.1729C466.592 48.4508 466.659 48.6901 466.745 48.8906V49H465.426C465.362 48.8542 465.312 48.6605 465.275 48.4189C465.239 48.1729 465.221 47.945 465.221 47.7354ZM465.439 44.5156L465.453 45.4043H464.175C463.815 45.4043 463.493 45.4339 463.211 45.4932C462.928 45.5479 462.691 45.6322 462.5 45.7461C462.309 45.86 462.163 46.0036 462.062 46.1768C461.962 46.3454 461.912 46.5436 461.912 46.7715C461.912 47.0039 461.965 47.2158 462.069 47.4072C462.174 47.5986 462.331 47.7513 462.541 47.8652C462.755 47.9746 463.017 48.0293 463.327 48.0293C463.715 48.0293 464.056 47.9473 464.353 47.7832C464.649 47.6191 464.883 47.4186 465.057 47.1816C465.234 46.9447 465.33 46.7145 465.344 46.4912L465.884 47.0996C465.852 47.291 465.765 47.5029 465.624 47.7354C465.483 47.9678 465.294 48.1911 465.057 48.4053C464.824 48.6149 464.546 48.7904 464.223 48.9316C463.904 49.0684 463.544 49.1367 463.143 49.1367C462.641 49.1367 462.201 49.0387 461.823 48.8428C461.45 48.6468 461.158 48.3848 460.948 48.0566C460.743 47.724 460.641 47.3525 460.641 46.9424C460.641 46.5459 460.718 46.1973 460.873 45.8965C461.028 45.5911 461.251 45.3382 461.543 45.1377C461.835 44.9326 462.186 44.7777 462.596 44.6729C463.006 44.568 463.464 44.5156 463.97 44.5156H465.439Z" fill="#131313"/>
<mask id="path-9-outside-2_61_208" maskUnits="userSpaceOnUse" x="280" y="64" width="200" height="33" fill="black">
<rect fill="white" x="280" y="64" width="200" height="33"/>
<path d="M280 64H480V96H280V64Z"/>
</mask>
<path d="M480 95H280V97H480V95Z" fill="black" fill-opacity="0.15" mask="url(#path-9-outside-2_61_208)"/>
<path d="M291.883 77.6035V85H290.229V77.6035H291.883ZM290.119 75.6621C290.119 75.4115 290.201 75.2041 290.365 75.04C290.534 74.8714 290.766 74.7871 291.062 74.7871C291.354 74.7871 291.584 74.8714 291.753 75.04C291.922 75.2041 292.006 75.4115 292.006 75.6621C292.006 75.9082 291.922 76.1133 291.753 76.2773C291.584 76.4414 291.354 76.5234 291.062 76.5234C290.766 76.5234 290.534 76.4414 290.365 76.2773C290.201 76.1133 290.119 75.9082 290.119 75.6621ZM298.199 83.4688V74.5H299.854V85H298.356L298.199 83.4688ZM293.387 81.3838V81.2402C293.387 80.6797 293.453 80.1693 293.585 79.709C293.717 79.2441 293.909 78.8454 294.159 78.5127C294.41 78.1755 294.715 77.918 295.075 77.7402C295.435 77.5579 295.841 77.4668 296.292 77.4668C296.739 77.4668 297.131 77.5534 297.468 77.7266C297.805 77.8997 298.092 78.1481 298.329 78.4717C298.566 78.7907 298.755 79.1735 298.896 79.6201C299.038 80.0622 299.138 80.5544 299.197 81.0967V81.5547C299.138 82.0833 299.038 82.5664 298.896 83.0039C298.755 83.4414 298.566 83.8197 298.329 84.1387C298.092 84.4577 297.803 84.7038 297.461 84.877C297.124 85.0501 296.729 85.1367 296.278 85.1367C295.832 85.1367 295.428 85.0433 295.068 84.8564C294.713 84.6696 294.41 84.4076 294.159 84.0703C293.909 83.7331 293.717 83.3366 293.585 82.8809C293.453 82.4206 293.387 81.9215 293.387 81.3838ZM295.034 81.2402V81.3838C295.034 81.721 295.064 82.0355 295.123 82.3271C295.187 82.6188 295.285 82.8763 295.417 83.0996C295.549 83.3184 295.72 83.4915 295.93 83.6191C296.144 83.7422 296.399 83.8037 296.695 83.8037C297.069 83.8037 297.377 83.7217 297.618 83.5576C297.86 83.3936 298.049 83.1725 298.186 82.8945C298.327 82.612 298.423 82.2975 298.473 81.9512V80.7139C298.445 80.445 298.388 80.1943 298.302 79.9619C298.22 79.7295 298.108 79.5267 297.967 79.3535C297.826 79.1758 297.65 79.0391 297.44 78.9434C297.235 78.8431 296.992 78.793 296.709 78.793C296.408 78.793 296.153 78.8568 295.943 78.9844C295.734 79.112 295.561 79.2874 295.424 79.5107C295.292 79.734 295.194 79.9938 295.13 80.29C295.066 80.5863 295.034 80.903 295.034 81.2402Z" fill="black"/>
<path opacity="0.5" d="M437.434 76.4688V85H436.303V76.4688H437.434ZM446.053 76.4688V85H444.916L440.621 78.4199V85H439.49V76.4688H440.621L444.934 83.0664V76.4688H446.053ZM451.033 76.4688V85H449.92V76.4688H451.033ZM453.775 76.4688V77.3945H447.184V76.4688H453.775ZM459.77 85.84H471.77V73.84H459.77V85.84Z" fill="black"/>
<mask id="path-13-outside-3_61_208" maskUnits="userSpaceOnUse" x="280" y="96" width="200" height="33" fill="black">
<rect fill="white" x="280" y="96" width="200" height="33"/>
<path d="M280 96H480V128H280V96Z"/>
</mask>
<path d="M480 127H280V129H480V127Z" fill="black" fill-opacity="0.15" mask="url(#path-13-outside-3_61_208)"/>
<path d="M291.802 109.604V117H290.147V109.604H291.802ZM290.038 107.662C290.038 107.411 290.12 107.204 290.284 107.04C290.453 106.871 290.685 106.787 290.981 106.787C291.273 106.787 291.503 106.871 291.672 107.04C291.84 107.204 291.925 107.411 291.925 107.662C291.925 107.908 291.84 108.113 291.672 108.277C291.503 108.441 291.273 108.523 290.981 108.523C290.685 108.523 290.453 108.441 290.284 108.277C290.12 108.113 290.038 107.908 290.038 107.662ZM296.628 115.824C296.897 115.824 297.138 115.772 297.353 115.667C297.571 115.558 297.747 115.407 297.879 115.216C298.016 115.024 298.091 114.803 298.104 114.553H299.656C299.647 115.031 299.506 115.466 299.232 115.858C298.959 116.25 298.597 116.562 298.146 116.795C297.694 117.023 297.195 117.137 296.648 117.137C296.083 117.137 295.591 117.041 295.172 116.85C294.753 116.654 294.404 116.385 294.126 116.043C293.848 115.701 293.638 115.307 293.497 114.86C293.36 114.414 293.292 113.935 293.292 113.425V113.186C293.292 112.675 293.36 112.197 293.497 111.75C293.638 111.299 293.848 110.902 294.126 110.561C294.404 110.219 294.753 109.952 295.172 109.761C295.591 109.565 296.081 109.467 296.642 109.467C297.234 109.467 297.754 109.585 298.2 109.822C298.647 110.055 298.998 110.381 299.253 110.8C299.513 111.215 299.647 111.698 299.656 112.249H298.104C298.091 111.976 298.022 111.729 297.899 111.511C297.781 111.287 297.612 111.11 297.394 110.978C297.179 110.845 296.922 110.779 296.621 110.779C296.288 110.779 296.013 110.848 295.794 110.984C295.575 111.117 295.404 111.299 295.281 111.531C295.158 111.759 295.069 112.017 295.015 112.304C294.965 112.586 294.939 112.88 294.939 113.186V113.425C294.939 113.73 294.965 114.026 295.015 114.313C295.065 114.601 295.151 114.858 295.274 115.086C295.402 115.309 295.575 115.489 295.794 115.626C296.013 115.758 296.291 115.824 296.628 115.824ZM300.606 113.384V113.227C300.606 112.693 300.684 112.199 300.839 111.743C300.994 111.283 301.217 110.884 301.509 110.547C301.805 110.205 302.165 109.941 302.589 109.754C303.017 109.562 303.5 109.467 304.038 109.467C304.58 109.467 305.063 109.562 305.487 109.754C305.916 109.941 306.278 110.205 306.574 110.547C306.87 110.884 307.096 111.283 307.251 111.743C307.406 112.199 307.483 112.693 307.483 113.227V113.384C307.483 113.917 307.406 114.411 307.251 114.867C307.096 115.323 306.87 115.722 306.574 116.063C306.278 116.401 305.918 116.665 305.494 116.856C305.07 117.043 304.59 117.137 304.052 117.137C303.509 117.137 303.024 117.043 302.596 116.856C302.172 116.665 301.812 116.401 301.516 116.063C301.219 115.722 300.994 115.323 300.839 114.867C300.684 114.411 300.606 113.917 300.606 113.384ZM302.254 113.227V113.384C302.254 113.716 302.288 114.031 302.356 114.327C302.425 114.623 302.532 114.883 302.678 115.106C302.824 115.33 303.01 115.505 303.238 115.633C303.466 115.76 303.737 115.824 304.052 115.824C304.357 115.824 304.621 115.76 304.845 115.633C305.073 115.505 305.259 115.33 305.405 115.106C305.551 114.883 305.658 114.623 305.727 114.327C305.799 114.031 305.836 113.716 305.836 113.384V113.227C305.836 112.898 305.799 112.589 305.727 112.297C305.658 112.001 305.549 111.739 305.398 111.511C305.253 111.283 305.066 111.105 304.838 110.978C304.615 110.845 304.348 110.779 304.038 110.779C303.728 110.779 303.459 110.845 303.231 110.978C303.008 111.105 302.824 111.283 302.678 111.511C302.532 111.739 302.425 112.001 302.356 112.297C302.288 112.589 302.254 112.898 302.254 113.227ZM310.498 111.183V117H308.851V109.604H310.402L310.498 111.183ZM310.204 113.028L309.671 113.021C309.675 112.497 309.748 112.017 309.89 111.579C310.035 111.142 310.236 110.766 310.491 110.451C310.751 110.137 311.061 109.895 311.421 109.727C311.781 109.553 312.182 109.467 312.624 109.467C312.979 109.467 313.301 109.517 313.588 109.617C313.88 109.713 314.128 109.87 314.333 110.089C314.543 110.308 314.702 110.592 314.812 110.943C314.921 111.29 314.976 111.716 314.976 112.222V117H313.321V112.215C313.321 111.859 313.269 111.579 313.164 111.374C313.064 111.164 312.916 111.016 312.72 110.93C312.528 110.839 312.289 110.793 312.002 110.793C311.719 110.793 311.466 110.852 311.243 110.971C311.02 111.089 310.831 111.251 310.676 111.456C310.525 111.661 310.409 111.898 310.327 112.167C310.245 112.436 310.204 112.723 310.204 113.028Z" fill="black"/>
<path opacity="0.5" d="M420.18 115.705L422.693 108.469H423.918L420.76 117H419.887L420.18 115.705ZM417.83 108.469L420.32 115.705L420.631 117H419.758L416.605 108.469H417.83ZM427.779 109.225L424.955 117H423.801L427.053 108.469H427.797L427.779 109.225ZM430.146 117L427.316 109.225L427.299 108.469H428.043L431.307 117H430.146ZM430 113.842V114.768H425.207V113.842H430ZM432.449 108.469H435.273C435.914 108.469 436.455 108.566 436.896 108.762C437.342 108.957 437.68 109.246 437.91 109.629C438.145 110.008 438.262 110.475 438.262 111.029C438.262 111.42 438.182 111.777 438.021 112.102C437.865 112.422 437.639 112.695 437.342 112.922C437.049 113.145 436.697 113.311 436.287 113.42L435.971 113.543H433.316L433.305 112.623H435.309C435.715 112.623 436.053 112.553 436.322 112.412C436.592 112.268 436.795 112.074 436.932 111.832C437.068 111.59 437.137 111.322 437.137 111.029C437.137 110.701 437.072 110.414 436.943 110.168C436.814 109.922 436.611 109.732 436.334 109.6C436.061 109.463 435.707 109.395 435.273 109.395H433.58V117H432.449V108.469ZM437.436 117L435.361 113.133L436.539 113.127L438.643 116.93V117H437.436ZM444.994 114.287H446.119C446.061 114.826 445.906 115.309 445.656 115.734C445.406 116.16 445.053 116.498 444.596 116.748C444.139 116.994 443.568 117.117 442.885 117.117C442.385 117.117 441.93 117.023 441.52 116.836C441.113 116.648 440.764 116.383 440.471 116.039C440.178 115.691 439.951 115.275 439.791 114.791C439.635 114.303 439.557 113.76 439.557 113.162V112.312C439.557 111.715 439.635 111.174 439.791 110.689C439.951 110.201 440.18 109.783 440.477 109.436C440.777 109.088 441.139 108.82 441.561 108.633C441.982 108.445 442.457 108.352 442.984 108.352C443.629 108.352 444.174 108.473 444.619 108.715C445.064 108.957 445.41 109.293 445.656 109.723C445.906 110.148 446.061 110.643 446.119 111.205H444.994C444.939 110.807 444.838 110.465 444.689 110.18C444.541 109.891 444.33 109.668 444.057 109.512C443.783 109.355 443.426 109.277 442.984 109.277C442.605 109.277 442.271 109.35 441.982 109.494C441.697 109.639 441.457 109.844 441.262 110.109C441.07 110.375 440.926 110.693 440.828 111.064C440.73 111.436 440.682 111.848 440.682 112.301V113.162C440.682 113.58 440.725 113.973 440.811 114.34C440.9 114.707 441.035 115.029 441.215 115.307C441.395 115.584 441.623 115.803 441.9 115.963C442.178 116.119 442.506 116.197 442.885 116.197C443.365 116.197 443.748 116.121 444.033 115.969C444.318 115.816 444.533 115.598 444.678 115.312C444.826 115.027 444.932 114.686 444.994 114.287ZM453.232 112.137V113.057H448.615V112.137H453.232ZM448.791 108.469V117H447.66V108.469H448.791ZM454.217 108.469V117H453.092V108.469H454.217ZM459.49 109.225L456.666 117H455.512L458.764 108.469H459.508L459.49 109.225ZM461.857 117L459.027 109.225L459.01 108.469H459.754L463.018 117H461.857ZM461.711 113.842V114.768H456.918V113.842H461.711ZM464.16 108.469H466.984C467.625 108.469 468.166 108.566 468.607 108.762C469.053 108.957 469.391 109.246 469.621 109.629C469.855 110.008 469.973 110.475 469.973 111.029C469.973 111.42 469.893 111.777 469.732 112.102C469.576 112.422 469.35 112.695 469.053 112.922C468.76 113.145 468.408 113.311 467.998 113.42L467.682 113.543H465.027L465.016 112.623H467.02C467.426 112.623 467.764 112.553 468.033 112.412C468.303 112.268 468.506 112.074 468.643 111.832C468.779 111.59 468.848 111.322 468.848 111.029C468.848 110.701 468.783 110.414 468.654 110.168C468.525 109.922 468.322 109.732 468.045 109.6C467.771 109.463 467.418 109.395 466.984 109.395H465.291V117H464.16V108.469ZM469.146 117L467.072 113.133L468.25 113.127L470.354 116.93V117H469.146Z" fill="black"/>
<mask id="path-17-outside-4_61_208" maskUnits="userSpaceOnUse" x="280" y="128" width="200" height="33" fill="black">
<rect fill="white" x="280" y="128" width="200" height="33"/>
<path d="M280 128H480V160H280V128Z"/>
</mask>
<path d="M480 159H280V161H480V159Z" fill="black" fill-opacity="0.15" mask="url(#path-17-outside-4_61_208)"/>
<path d="M291.961 143.183V149H290.313V141.604H291.865L291.961 143.183ZM291.667 145.028L291.134 145.021C291.138 144.497 291.211 144.017 291.353 143.579C291.498 143.142 291.699 142.766 291.954 142.451C292.214 142.137 292.524 141.895 292.884 141.727C293.244 141.553 293.645 141.467 294.087 141.467C294.442 141.467 294.764 141.517 295.051 141.617C295.342 141.713 295.591 141.87 295.796 142.089C296.006 142.308 296.165 142.592 296.274 142.943C296.384 143.29 296.438 143.716 296.438 144.222V149H294.784V144.215C294.784 143.859 294.732 143.579 294.627 143.374C294.527 143.164 294.379 143.016 294.183 142.93C293.991 142.839 293.752 142.793 293.465 142.793C293.182 142.793 292.929 142.852 292.706 142.971C292.483 143.089 292.294 143.251 292.139 143.456C291.988 143.661 291.872 143.898 291.79 144.167C291.708 144.436 291.667 144.723 291.667 145.028ZM302.29 147.517V143.989C302.29 143.725 302.242 143.497 302.146 143.306C302.051 143.114 301.905 142.966 301.709 142.861C301.518 142.757 301.276 142.704 300.984 142.704C300.715 142.704 300.483 142.75 300.287 142.841C300.091 142.932 299.938 143.055 299.829 143.21C299.72 143.365 299.665 143.54 299.665 143.736H298.024C298.024 143.445 298.095 143.162 298.236 142.889C298.378 142.615 298.583 142.371 298.852 142.157C299.12 141.943 299.442 141.774 299.815 141.651C300.189 141.528 300.608 141.467 301.073 141.467C301.629 141.467 302.121 141.56 302.55 141.747C302.983 141.934 303.322 142.216 303.568 142.595C303.819 142.968 303.944 143.438 303.944 144.003V147.291C303.944 147.628 303.967 147.931 304.013 148.2C304.063 148.465 304.133 148.695 304.225 148.891V149H302.536C302.459 148.822 302.397 148.597 302.352 148.323C302.311 148.045 302.29 147.776 302.29 147.517ZM302.529 144.502L302.543 145.521H301.36C301.055 145.521 300.786 145.55 300.554 145.609C300.321 145.664 300.128 145.746 299.973 145.855C299.818 145.965 299.701 146.097 299.624 146.252C299.547 146.407 299.508 146.582 299.508 146.778C299.508 146.974 299.553 147.154 299.645 147.318C299.736 147.478 299.868 147.603 300.041 147.694C300.219 147.785 300.433 147.831 300.684 147.831C301.021 147.831 301.315 147.763 301.565 147.626C301.821 147.485 302.021 147.314 302.167 147.113C302.313 146.908 302.39 146.715 302.399 146.532L302.933 147.264C302.878 147.451 302.785 147.651 302.652 147.865C302.52 148.079 302.347 148.285 302.133 148.48C301.923 148.672 301.67 148.829 301.374 148.952C301.082 149.075 300.745 149.137 300.362 149.137C299.879 149.137 299.449 149.041 299.07 148.85C298.692 148.654 298.396 148.392 298.182 148.063C297.967 147.731 297.86 147.355 297.86 146.936C297.86 146.544 297.933 146.197 298.079 145.896C298.229 145.591 298.448 145.336 298.735 145.131C299.027 144.926 299.382 144.771 299.802 144.666C300.221 144.557 300.7 144.502 301.237 144.502H302.529ZM307.314 143.107V149H305.667V141.604H307.219L307.314 143.107ZM307.048 145.028L306.487 145.021C306.487 144.511 306.551 144.039 306.679 143.606C306.806 143.174 306.993 142.798 307.239 142.479C307.485 142.155 307.791 141.907 308.155 141.733C308.524 141.556 308.951 141.467 309.434 141.467C309.771 141.467 310.078 141.517 310.356 141.617C310.639 141.713 310.883 141.866 311.088 142.075C311.298 142.285 311.457 142.554 311.566 142.882C311.68 143.21 311.737 143.606 311.737 144.071V149H310.09V144.215C310.09 143.855 310.035 143.572 309.926 143.367C309.821 143.162 309.668 143.016 309.468 142.93C309.272 142.839 309.037 142.793 308.764 142.793C308.454 142.793 308.189 142.852 307.971 142.971C307.757 143.089 307.581 143.251 307.444 143.456C307.308 143.661 307.207 143.898 307.144 144.167C307.08 144.436 307.048 144.723 307.048 145.028ZM311.635 144.591L310.862 144.762C310.862 144.315 310.924 143.894 311.047 143.497C311.174 143.096 311.359 142.745 311.601 142.444C311.847 142.139 312.15 141.9 312.51 141.727C312.87 141.553 313.282 141.467 313.747 141.467C314.125 141.467 314.463 141.519 314.759 141.624C315.06 141.724 315.315 141.884 315.524 142.103C315.734 142.321 315.894 142.606 316.003 142.957C316.112 143.303 316.167 143.723 316.167 144.215V149H314.513V144.208C314.513 143.834 314.458 143.545 314.349 143.34C314.244 143.135 314.093 142.993 313.897 142.916C313.701 142.834 313.467 142.793 313.193 142.793C312.938 142.793 312.713 142.841 312.517 142.937C312.325 143.028 312.163 143.158 312.031 143.326C311.899 143.49 311.799 143.679 311.73 143.894C311.667 144.108 311.635 144.34 311.635 144.591ZM321.123 149.137C320.576 149.137 320.082 149.048 319.64 148.87C319.202 148.688 318.828 148.435 318.519 148.111C318.213 147.788 317.979 147.407 317.814 146.97C317.65 146.532 317.568 146.061 317.568 145.555V145.281C317.568 144.702 317.653 144.178 317.821 143.709C317.99 143.24 318.225 142.839 318.525 142.506C318.826 142.169 319.182 141.911 319.592 141.733C320.002 141.556 320.446 141.467 320.925 141.467C321.453 141.467 321.916 141.556 322.312 141.733C322.709 141.911 323.037 142.162 323.297 142.485C323.561 142.804 323.757 143.185 323.885 143.627C324.017 144.069 324.083 144.557 324.083 145.09V145.794H318.368V144.611H322.456V144.481C322.447 144.185 322.388 143.907 322.278 143.647C322.174 143.388 322.012 143.178 321.793 143.019C321.574 142.859 321.283 142.779 320.918 142.779C320.645 142.779 320.401 142.839 320.187 142.957C319.977 143.071 319.801 143.237 319.66 143.456C319.519 143.675 319.41 143.939 319.332 144.249C319.259 144.554 319.223 144.898 319.223 145.281V145.555C319.223 145.878 319.266 146.179 319.353 146.457C319.444 146.73 319.576 146.97 319.749 147.175C319.922 147.38 320.132 147.542 320.378 147.66C320.624 147.774 320.904 147.831 321.219 147.831C321.615 147.831 321.968 147.751 322.278 147.592C322.588 147.432 322.857 147.207 323.085 146.915L323.953 147.756C323.794 147.988 323.586 148.212 323.331 148.426C323.076 148.635 322.764 148.806 322.395 148.938C322.03 149.071 321.606 149.137 321.123 149.137Z" fill="black"/>
<path opacity="0.5" d="M420.18 147.705L422.693 140.469H423.918L420.76 149H419.887L420.18 147.705ZM417.83 140.469L420.32 147.705L420.631 149H419.758L416.605 140.469H417.83ZM427.779 141.225L424.955 149H423.801L427.053 140.469H427.797L427.779 141.225ZM430.146 149L427.316 141.225L427.299 140.469H428.043L431.307 149H430.146ZM430 145.842V146.768H425.207V145.842H430ZM432.449 140.469H435.273C435.914 140.469 436.455 140.566 436.896 140.762C437.342 140.957 437.68 141.246 437.91 141.629C438.145 142.008 438.262 142.475 438.262 143.029C438.262 143.42 438.182 143.777 438.021 144.102C437.865 144.422 437.639 144.695 437.342 144.922C437.049 145.145 436.697 145.311 436.287 145.42L435.971 145.543H433.316L433.305 144.623H435.309C435.715 144.623 436.053 144.553 436.322 144.412C436.592 144.268 436.795 144.074 436.932 143.832C437.068 143.59 437.137 143.322 437.137 143.029C437.137 142.701 437.072 142.414 436.943 142.168C436.814 141.922 436.611 141.732 436.334 141.6C436.061 141.463 435.707 141.395 435.273 141.395H433.58V149H432.449V140.469ZM437.436 149L435.361 145.133L436.539 145.127L438.643 148.93V149H437.436ZM444.994 146.287H446.119C446.061 146.826 445.906 147.309 445.656 147.734C445.406 148.16 445.053 148.498 444.596 148.748C444.139 148.994 443.568 149.117 442.885 149.117C442.385 149.117 441.93 149.023 441.52 148.836C441.113 148.648 440.764 148.383 440.471 148.039C440.178 147.691 439.951 147.275 439.791 146.791C439.635 146.303 439.557 145.76 439.557 145.162V144.312C439.557 143.715 439.635 143.174 439.791 142.689C439.951 142.201 440.18 141.783 440.477 141.436C440.777 141.088 441.139 140.82 441.561 140.633C441.982 140.445 442.457 140.352 442.984 140.352C443.629 140.352 444.174 140.473 444.619 140.715C445.064 140.957 445.41 141.293 445.656 141.723C445.906 142.148 446.061 142.643 446.119 143.205H444.994C444.939 142.807 444.838 142.465 444.689 142.18C444.541 141.891 444.33 141.668 444.057 141.512C443.783 141.355 443.426 141.277 442.984 141.277C442.605 141.277 442.271 141.35 441.982 141.494C441.697 141.639 441.457 141.844 441.262 142.109C441.07 142.375 440.926 142.693 440.828 143.064C440.73 143.436 440.682 143.848 440.682 144.301V145.162C440.682 145.58 440.725 145.973 440.811 146.34C440.9 146.707 441.035 147.029 441.215 147.307C441.395 147.584 441.623 147.803 441.9 147.963C442.178 148.119 442.506 148.197 442.885 148.197C443.365 148.197 443.748 148.121 444.033 147.969C444.318 147.816 444.533 147.598 444.678 147.312C444.826 147.027 444.932 146.686 444.994 146.287ZM453.232 144.137V145.057H448.615V144.137H453.232ZM448.791 140.469V149H447.66V140.469H448.791ZM454.217 140.469V149H453.092V140.469H454.217ZM459.49 141.225L456.666 149H455.512L458.764 140.469H459.508L459.49 141.225ZM461.857 149L459.027 141.225L459.01 140.469H459.754L463.018 149H461.857ZM461.711 145.842V146.768H456.918V145.842H461.711ZM464.16 140.469H466.984C467.625 140.469 468.166 140.566 468.607 140.762C469.053 140.957 469.391 141.246 469.621 141.629C469.855 142.008 469.973 142.475 469.973 143.029C469.973 143.42 469.893 143.777 469.732 144.102C469.576 144.422 469.35 144.695 469.053 144.922C468.76 145.145 468.408 145.311 467.998 145.42L467.682 145.543H465.027L465.016 144.623H467.02C467.426 144.623 467.764 144.553 468.033 144.412C468.303 144.268 468.506 144.074 468.643 143.832C468.779 143.59 468.848 143.322 468.848 143.029C468.848 142.701 468.783 142.414 468.654 142.168C468.525 141.922 468.322 141.732 468.045 141.6C467.771 141.463 467.418 141.395 466.984 141.395H465.291V149H464.16V140.469ZM469.146 149L467.072 145.133L468.25 145.127L470.354 148.93V149H469.146Z" fill="black"/>
<mask id="path-21-outside-5_61_208" maskUnits="userSpaceOnUse" x="280" y="160" width="200" height="33" fill="black">
<rect fill="white" x="280" y="160" width="200" height="33"/>
<path d="M280 160H480V192H280V160Z"/>
</mask>
<path d="M480 191H280V193H480V191Z" fill="black" fill-opacity="0.15" mask="url(#path-21-outside-5_61_208)"/>
<path d="M293.107 179.824C293.376 179.824 293.618 179.772 293.832 179.667C294.051 179.558 294.226 179.407 294.358 179.216C294.495 179.024 294.57 178.803 294.584 178.553H296.136C296.127 179.031 295.985 179.466 295.712 179.858C295.438 180.25 295.076 180.562 294.625 180.795C294.174 181.023 293.675 181.137 293.128 181.137C292.563 181.137 292.071 181.041 291.651 180.85C291.232 180.654 290.883 180.385 290.605 180.043C290.327 179.701 290.118 179.307 289.977 178.86C289.84 178.414 289.771 177.935 289.771 177.425V177.186C289.771 176.675 289.84 176.197 289.977 175.75C290.118 175.299 290.327 174.902 290.605 174.561C290.883 174.219 291.232 173.952 291.651 173.761C292.071 173.565 292.561 173.467 293.121 173.467C293.714 173.467 294.233 173.585 294.68 173.822C295.126 174.055 295.477 174.381 295.732 174.8C295.992 175.215 296.127 175.698 296.136 176.249H294.584C294.57 175.976 294.502 175.729 294.379 175.511C294.26 175.287 294.092 175.11 293.873 174.978C293.659 174.845 293.401 174.779 293.101 174.779C292.768 174.779 292.492 174.848 292.273 174.984C292.055 175.117 291.884 175.299 291.761 175.531C291.638 175.759 291.549 176.017 291.494 176.304C291.444 176.586 291.419 176.88 291.419 177.186V177.425C291.419 177.73 291.444 178.026 291.494 178.313C291.544 178.601 291.631 178.858 291.754 179.086C291.882 179.309 292.055 179.489 292.273 179.626C292.492 179.758 292.77 179.824 293.107 179.824ZM301.57 179.517V175.989C301.57 175.725 301.522 175.497 301.427 175.306C301.331 175.114 301.185 174.966 300.989 174.861C300.798 174.757 300.556 174.704 300.265 174.704C299.996 174.704 299.763 174.75 299.567 174.841C299.371 174.932 299.219 175.055 299.109 175.21C299 175.365 298.945 175.54 298.945 175.736H297.305C297.305 175.445 297.375 175.162 297.517 174.889C297.658 174.615 297.863 174.371 298.132 174.157C298.401 173.943 298.722 173.774 299.096 173.651C299.469 173.528 299.889 173.467 300.354 173.467C300.91 173.467 301.402 173.56 301.83 173.747C302.263 173.934 302.603 174.216 302.849 174.595C303.099 174.968 303.225 175.438 303.225 176.003V179.291C303.225 179.628 303.247 179.931 303.293 180.2C303.343 180.465 303.414 180.695 303.505 180.891V181H301.816C301.739 180.822 301.677 180.597 301.632 180.323C301.591 180.045 301.57 179.776 301.57 179.517ZM301.81 176.502L301.823 177.521H300.641C300.335 177.521 300.066 177.55 299.834 177.609C299.602 177.664 299.408 177.746 299.253 177.855C299.098 177.965 298.982 178.097 298.904 178.252C298.827 178.407 298.788 178.582 298.788 178.778C298.788 178.974 298.834 179.154 298.925 179.318C299.016 179.478 299.148 179.603 299.321 179.694C299.499 179.785 299.713 179.831 299.964 179.831C300.301 179.831 300.595 179.763 300.846 179.626C301.101 179.485 301.301 179.314 301.447 179.113C301.593 178.908 301.671 178.715 301.68 178.532L302.213 179.264C302.158 179.451 302.065 179.651 301.933 179.865C301.8 180.079 301.627 180.285 301.413 180.48C301.203 180.672 300.951 180.829 300.654 180.952C300.363 181.075 300.025 181.137 299.643 181.137C299.16 181.137 298.729 181.041 298.351 180.85C297.972 180.654 297.676 180.392 297.462 180.063C297.248 179.731 297.141 179.355 297.141 178.936C297.141 178.544 297.214 178.197 297.359 177.896C297.51 177.591 297.729 177.336 298.016 177.131C298.307 176.926 298.663 176.771 299.082 176.666C299.501 176.557 299.98 176.502 300.518 176.502H301.81ZM308.338 173.604V174.807H304.168V173.604H308.338ZM305.371 171.792H307.019V178.956C307.019 179.184 307.05 179.359 307.114 179.482C307.183 179.601 307.276 179.681 307.395 179.722C307.513 179.763 307.652 179.783 307.812 179.783C307.925 179.783 308.035 179.776 308.14 179.763C308.244 179.749 308.329 179.735 308.393 179.722L308.399 180.979C308.263 181.021 308.103 181.057 307.921 181.089C307.743 181.121 307.538 181.137 307.306 181.137C306.927 181.137 306.592 181.071 306.301 180.938C306.009 180.802 305.781 180.581 305.617 180.275C305.453 179.97 305.371 179.564 305.371 179.059V171.792Z" fill="black"/>
<path opacity="0.5" d="M420.18 179.705L422.693 172.469H423.918L420.76 181H419.887L420.18 179.705ZM417.83 172.469L420.32 179.705L420.631 181H419.758L416.605 172.469H417.83ZM427.779 173.225L424.955 181H423.801L427.053 172.469H427.797L427.779 173.225ZM430.146 181L427.316 173.225L427.299 172.469H428.043L431.307 181H430.146ZM430 177.842V178.768H425.207V177.842H430ZM432.449 172.469H435.273C435.914 172.469 436.455 172.566 436.896 172.762C437.342 172.957 437.68 173.246 437.91 173.629C438.145 174.008 438.262 174.475 438.262 175.029C438.262 175.42 438.182 175.777 438.021 176.102C437.865 176.422 437.639 176.695 437.342 176.922C437.049 177.145 436.697 177.311 436.287 177.42L435.971 177.543H433.316L433.305 176.623H435.309C435.715 176.623 436.053 176.553 436.322 176.412C436.592 176.268 436.795 176.074 436.932 175.832C437.068 175.59 437.137 175.322 437.137 175.029C437.137 174.701 437.072 174.414 436.943 174.168C436.814 173.922 436.611 173.732 436.334 173.6C436.061 173.463 435.707 173.395 435.273 173.395H433.58V181H432.449V172.469ZM437.436 181L435.361 177.133L436.539 177.127L438.643 180.93V181H437.436ZM444.994 178.287H446.119C446.061 178.826 445.906 179.309 445.656 179.734C445.406 180.16 445.053 180.498 444.596 180.748C444.139 180.994 443.568 181.117 442.885 181.117C442.385 181.117 441.93 181.023 441.52 180.836C441.113 180.648 440.764 180.383 440.471 180.039C440.178 179.691 439.951 179.275 439.791 178.791C439.635 178.303 439.557 177.76 439.557 177.162V176.312C439.557 175.715 439.635 175.174 439.791 174.689C439.951 174.201 440.18 173.783 440.477 173.436C440.777 173.088 441.139 172.82 441.561 172.633C441.982 172.445 442.457 172.352 442.984 172.352C443.629 172.352 444.174 172.473 444.619 172.715C445.064 172.957 445.41 173.293 445.656 173.723C445.906 174.148 446.061 174.643 446.119 175.205H444.994C444.939 174.807 444.838 174.465 444.689 174.18C444.541 173.891 444.33 173.668 444.057 173.512C443.783 173.355 443.426 173.277 442.984 173.277C442.605 173.277 442.271 173.35 441.982 173.494C441.697 173.639 441.457 173.844 441.262 174.109C441.07 174.375 440.926 174.693 440.828 175.064C440.73 175.436 440.682 175.848 440.682 176.301V177.162C440.682 177.58 440.725 177.973 440.811 178.34C440.9 178.707 441.035 179.029 441.215 179.307C441.395 179.584 441.623 179.803 441.9 179.963C442.178 180.119 442.506 180.197 442.885 180.197C443.365 180.197 443.748 180.121 444.033 179.969C444.318 179.816 444.533 179.598 444.678 179.312C444.826 179.027 444.932 178.686 444.994 178.287ZM453.232 176.137V177.057H448.615V176.137H453.232ZM448.791 172.469V181H447.66V172.469H448.791ZM454.217 172.469V181H453.092V172.469H454.217ZM459.49 173.225L456.666 181H455.512L458.764 172.469H459.508L459.49 173.225ZM461.857 181L459.027 173.225L459.01 172.469H459.754L463.018 181H461.857ZM461.711 177.842V178.768H456.918V177.842H461.711ZM464.16 172.469H466.984C467.625 172.469 468.166 172.566 468.607 172.762C469.053 172.957 469.391 173.246 469.621 173.629C469.855 174.008 469.973 174.475 469.973 175.029C469.973 175.42 469.893 175.777 469.732 176.102C469.576 176.422 469.35 176.695 469.053 176.922C468.76 177.145 468.408 177.311 467.998 177.42L467.682 177.543H465.027L465.016 176.623H467.02C467.426 176.623 467.764 176.553 468.033 176.412C468.303 176.268 468.506 176.074 468.643 175.832C468.779 175.59 468.848 175.322 468.848 175.029C468.848 174.701 468.783 174.414 468.654 174.168C468.525 173.922 468.322 173.732 468.045 173.6C467.771 173.463 467.418 173.395 466.984 173.395H465.291V181H464.16V172.469ZM469.146 181L467.072 177.133L468.25 177.127L470.354 180.93V181H469.146Z" fill="black"/>
<path d="M291.712 202.5V213H290.058V202.5H291.712ZM296.306 205.604L293.086 209.172L291.322 210.977L290.892 209.582L292.225 207.935L294.316 205.604H296.306ZM294.672 213L292.272 209.527L293.312 208.372L296.579 213H294.672ZM300.236 211.824C300.505 211.824 300.747 211.772 300.961 211.667C301.18 211.558 301.355 211.407 301.487 211.216C301.624 211.024 301.699 210.803 301.713 210.553H303.265C303.256 211.031 303.114 211.466 302.841 211.858C302.567 212.25 302.205 212.562 301.754 212.795C301.303 213.023 300.804 213.137 300.257 213.137C299.692 213.137 299.2 213.041 298.78 212.85C298.361 212.654 298.012 212.385 297.734 212.043C297.456 211.701 297.247 211.307 297.105 210.86C296.969 210.414 296.9 209.935 296.9 209.425V209.186C296.9 208.675 296.969 208.197 297.105 207.75C297.247 207.299 297.456 206.902 297.734 206.561C298.012 206.219 298.361 205.952 298.78 205.761C299.2 205.565 299.689 205.467 300.25 205.467C300.842 205.467 301.362 205.585 301.809 205.822C302.255 206.055 302.606 206.381 302.861 206.8C303.121 207.215 303.256 207.698 303.265 208.249H301.713C301.699 207.976 301.631 207.729 301.508 207.511C301.389 207.287 301.221 207.11 301.002 206.978C300.788 206.845 300.53 206.779 300.229 206.779C299.897 206.779 299.621 206.848 299.402 206.984C299.184 207.117 299.013 207.299 298.89 207.531C298.767 207.759 298.678 208.017 298.623 208.304C298.573 208.586 298.548 208.88 298.548 209.186V209.425C298.548 209.73 298.573 210.026 298.623 210.313C298.673 210.601 298.76 210.858 298.883 211.086C299.01 211.309 299.184 211.489 299.402 211.626C299.621 211.758 299.899 211.824 300.236 211.824ZM308.699 211.517V207.989C308.699 207.725 308.651 207.497 308.556 207.306C308.46 207.114 308.314 206.966 308.118 206.861C307.927 206.757 307.685 206.704 307.394 206.704C307.125 206.704 306.892 206.75 306.696 206.841C306.5 206.932 306.348 207.055 306.238 207.21C306.129 207.365 306.074 207.54 306.074 207.736H304.434C304.434 207.445 304.504 207.162 304.646 206.889C304.787 206.615 304.992 206.371 305.261 206.157C305.53 205.943 305.851 205.774 306.225 205.651C306.598 205.528 307.018 205.467 307.482 205.467C308.038 205.467 308.531 205.56 308.959 205.747C309.392 205.934 309.731 206.216 309.978 206.595C310.228 206.968 310.354 207.438 310.354 208.003V211.291C310.354 211.628 310.376 211.931 310.422 212.2C310.472 212.465 310.543 212.695 310.634 212.891V213H308.945C308.868 212.822 308.806 212.597 308.761 212.323C308.72 212.045 308.699 211.776 308.699 211.517ZM308.938 208.502L308.952 209.521H307.77C307.464 209.521 307.195 209.55 306.963 209.609C306.73 209.664 306.537 209.746 306.382 209.855C306.227 209.965 306.111 210.097 306.033 210.252C305.956 210.407 305.917 210.582 305.917 210.778C305.917 210.974 305.963 211.154 306.054 211.318C306.145 211.478 306.277 211.603 306.45 211.694C306.628 211.785 306.842 211.831 307.093 211.831C307.43 211.831 307.724 211.763 307.975 211.626C308.23 211.485 308.43 211.314 308.576 211.113C308.722 210.908 308.799 210.715 308.809 210.532L309.342 211.264C309.287 211.451 309.194 211.651 309.062 211.865C308.929 212.079 308.756 212.285 308.542 212.48C308.332 212.672 308.079 212.829 307.783 212.952C307.492 213.075 307.154 213.137 306.771 213.137C306.288 213.137 305.858 213.041 305.479 212.85C305.101 212.654 304.805 212.392 304.591 212.063C304.377 211.731 304.27 211.355 304.27 210.936C304.27 210.544 304.342 210.197 304.488 209.896C304.639 209.591 304.857 209.336 305.145 209.131C305.436 208.926 305.792 208.771 306.211 208.666C306.63 208.557 307.109 208.502 307.646 208.502H308.938ZM313.84 202.5V213H312.186V202.5H313.84Z" fill="black"/>
<path opacity="0.5" d="M454.293 203.469V212H453.162V203.469H454.293ZM462.912 203.469V212H461.775L457.48 205.42V212H456.35V203.469H457.48L461.793 210.066V203.469H462.912ZM467.893 203.469V212H466.779V203.469H467.893ZM470.635 203.469V204.395H464.043V203.469H470.635Z" fill="black"/>
</g>
<rect x="279.5" y="24.5" width="201" height="200" rx="6.5" stroke="#D9DBDB"/>
</g>
<defs>
<clipPath id="clip0_61_208">
<rect width="760" height="249" fill="white"/>
</clipPath>
<clipPath id="clip1_61_208">
<rect x="280" y="25" width="200" height="199" rx="6" fill="white"/>
</clipPath>
</defs>
</svg>
