<svg width="760" height="295" viewBox="0 0 760 295" fill="none" xmlns="http://www.w3.org/2000/svg">
<g clip-path="url(#clip0_75_4)">
<rect width="760" height="295" fill="#F2F6F8"/>
<g filter="url(#filter0_d_75_4)">
<g clip-path="url(#clip1_75_4)">
<rect x="252" y="25" width="257" height="231" rx="6" fill="white"/>
<mask id="path-2-inside-1_75_4" fill="white">
<path d="M252 25H509V64H252V25Z"/>
</mask>
<path d="M252 25H509V64H252V25Z" fill="#E1FAF2"/>
<path d="M509 63H252V65H509V63Z" fill="black" fill-opacity="0.15" mask="url(#path-2-inside-1_75_4)"/>
<path d="M273.7 40.6V49.7H264.6V51H273.7C274.415 51 275 50.415 275 49.7V40.6H273.7Z" fill="black"/>
<path d="M271.1 38H263.3C262.585 38 262 38.585 262 39.3V47.1C262 47.815 262.585 48.4 263.3 48.4H271.1C271.815 48.4 272.4 47.815 272.4 47.1V39.3C272.4 38.585 271.815 38 271.1 38ZM266.55 47.1H263.3V43.85H266.55V47.1ZM271.1 47.1H267.85V43.85H271.1V47.1ZM271.1 42.55H263.3V39.3H271.1V42.55Z" fill="black"/>
<path d="M285.711 39V49.5H283.742V39H285.711ZM285.431 45.542H284.891C284.895 45.027 284.964 44.5531 285.096 44.1201C285.228 43.6826 285.417 43.3044 285.663 42.9854C285.909 42.6618 286.203 42.4111 286.545 42.2334C286.891 42.0557 287.274 41.9668 287.693 41.9668C288.058 41.9668 288.388 42.0192 288.685 42.124C288.985 42.2243 289.243 42.3883 289.457 42.6162C289.676 42.8395 289.844 43.1335 289.963 43.498C290.081 43.8626 290.141 44.3047 290.141 44.8242V49.5H288.158V44.8105C288.158 44.4824 288.11 44.2249 288.015 44.0381C287.924 43.8467 287.789 43.7122 287.611 43.6348C287.438 43.5527 287.224 43.5117 286.969 43.5117C286.686 43.5117 286.445 43.5641 286.244 43.6689C286.048 43.7738 285.891 43.9196 285.772 44.1064C285.654 44.2887 285.567 44.5029 285.513 44.749C285.458 44.9951 285.431 45.2594 285.431 45.542ZM291.323 45.877V45.7334C291.323 45.1911 291.401 44.6921 291.556 44.2363C291.711 43.776 291.936 43.3773 292.232 43.04C292.529 42.7028 292.893 42.4408 293.326 42.2539C293.759 42.0625 294.256 41.9668 294.816 41.9668C295.377 41.9668 295.876 42.0625 296.313 42.2539C296.751 42.4408 297.118 42.7028 297.414 43.04C297.715 43.3773 297.943 43.776 298.098 44.2363C298.253 44.6921 298.33 45.1911 298.33 45.7334V45.877C298.33 46.4147 298.253 46.9137 298.098 47.374C297.943 47.8298 297.715 48.2285 297.414 48.5703C297.118 48.9076 296.753 49.1696 296.32 49.3564C295.887 49.5433 295.391 49.6367 294.83 49.6367C294.27 49.6367 293.771 49.5433 293.333 49.3564C292.9 49.1696 292.533 48.9076 292.232 48.5703C291.936 48.2285 291.711 47.8298 291.556 47.374C291.401 46.9137 291.323 46.4147 291.323 45.877ZM293.292 45.7334V45.877C293.292 46.1868 293.319 46.4762 293.374 46.7451C293.429 47.014 293.515 47.251 293.634 47.4561C293.757 47.6566 293.916 47.8138 294.112 47.9277C294.308 48.0417 294.548 48.0986 294.83 48.0986C295.104 48.0986 295.338 48.0417 295.534 47.9277C295.73 47.8138 295.887 47.6566 296.006 47.4561C296.124 47.251 296.211 47.014 296.266 46.7451C296.325 46.4762 296.354 46.1868 296.354 45.877V45.7334C296.354 45.4326 296.325 45.1501 296.266 44.8857C296.211 44.6169 296.122 44.3799 295.999 44.1748C295.881 43.9652 295.723 43.8011 295.527 43.6826C295.331 43.5641 295.094 43.5049 294.816 43.5049C294.538 43.5049 294.301 43.5641 294.105 43.6826C293.914 43.8011 293.757 43.9652 293.634 44.1748C293.515 44.3799 293.429 44.6169 293.374 44.8857C293.319 45.1501 293.292 45.4326 293.292 45.7334ZM303.163 42.1035V43.498H298.856V42.1035H303.163ZM299.923 40.2783H301.892V47.2715C301.892 47.4857 301.919 47.6497 301.974 47.7637C302.033 47.8776 302.119 47.9574 302.233 48.0029C302.347 48.0439 302.491 48.0645 302.664 48.0645C302.787 48.0645 302.896 48.0599 302.992 48.0508C303.092 48.0371 303.177 48.0234 303.245 48.0098L303.252 49.459C303.083 49.5137 302.901 49.557 302.705 49.5889C302.509 49.6208 302.293 49.6367 302.056 49.6367C301.623 49.6367 301.244 49.5661 300.921 49.4248C300.602 49.279 300.356 49.0465 300.183 48.7275C300.009 48.4085 299.923 47.9893 299.923 47.4697V40.2783ZM307.688 49.6367C307.114 49.6367 306.599 49.5456 306.144 49.3633C305.688 49.1764 305.3 48.9189 304.981 48.5908C304.667 48.2627 304.425 47.8822 304.257 47.4492C304.088 47.0117 304.004 46.5469 304.004 46.0547V45.7812C304.004 45.2207 304.084 44.708 304.243 44.2432C304.403 43.7783 304.631 43.375 304.927 43.0332C305.228 42.6914 305.592 42.4294 306.021 42.2471C306.449 42.0602 306.932 41.9668 307.47 41.9668C307.994 41.9668 308.459 42.0534 308.864 42.2266C309.27 42.3997 309.609 42.6458 309.883 42.9648C310.161 43.2839 310.37 43.6667 310.512 44.1133C310.653 44.5553 310.724 45.0475 310.724 45.5898V46.4102H304.845V45.0977H308.789V44.9473C308.789 44.6738 308.739 44.43 308.639 44.2158C308.543 43.9971 308.397 43.8239 308.201 43.6963C308.005 43.5687 307.755 43.5049 307.449 43.5049C307.189 43.5049 306.966 43.5618 306.779 43.6758C306.592 43.7897 306.44 43.9492 306.321 44.1543C306.207 44.3594 306.121 44.6009 306.062 44.8789C306.007 45.1523 305.979 45.4531 305.979 45.7812V46.0547C305.979 46.3509 306.021 46.6243 306.103 46.875C306.189 47.1257 306.31 47.3421 306.465 47.5244C306.624 47.7067 306.816 47.848 307.039 47.9482C307.267 48.0485 307.524 48.0986 307.812 48.0986C308.167 48.0986 308.497 48.0303 308.803 47.8936C309.113 47.7523 309.379 47.5404 309.603 47.2578L310.56 48.2969C310.405 48.5202 310.193 48.7344 309.924 48.9395C309.66 49.1445 309.34 49.3132 308.967 49.4453C308.593 49.5729 308.167 49.6367 307.688 49.6367ZM313.923 39V49.5H311.947V39H313.923ZM319.549 47.4561C319.549 47.3148 319.508 47.1872 319.426 47.0732C319.344 46.9593 319.191 46.8545 318.968 46.7588C318.749 46.6585 318.432 46.5674 318.018 46.4854C317.644 46.4033 317.295 46.3008 316.972 46.1777C316.653 46.0501 316.375 45.8975 316.138 45.7197C315.905 45.542 315.723 45.3324 315.591 45.0908C315.459 44.8447 315.393 44.5645 315.393 44.25C315.393 43.9401 315.459 43.6484 315.591 43.375C315.728 43.1016 315.921 42.86 316.172 42.6504C316.427 42.4362 316.737 42.2699 317.102 42.1514C317.471 42.0283 317.885 41.9668 318.346 41.9668C318.988 41.9668 319.54 42.0693 320 42.2744C320.465 42.4795 320.82 42.762 321.066 43.1221C321.317 43.4775 321.442 43.8831 321.442 44.3389H319.474C319.474 44.1475 319.433 43.9766 319.351 43.8262C319.273 43.6712 319.15 43.5505 318.981 43.4639C318.817 43.3727 318.603 43.3271 318.339 43.3271C318.12 43.3271 317.931 43.3659 317.771 43.4434C317.612 43.5163 317.489 43.6165 317.402 43.7441C317.32 43.8672 317.279 44.0039 317.279 44.1543C317.279 44.2682 317.302 44.3708 317.348 44.4619C317.398 44.5485 317.478 44.6283 317.587 44.7012C317.696 44.7741 317.838 44.8424 318.011 44.9062C318.188 44.9655 318.407 45.0202 318.667 45.0703C319.2 45.1797 319.676 45.3232 320.096 45.501C320.515 45.6742 320.848 45.9111 321.094 46.2119C321.34 46.5081 321.463 46.8978 321.463 47.3809C321.463 47.709 321.39 48.0098 321.244 48.2832C321.098 48.5566 320.889 48.7959 320.615 49.001C320.342 49.2015 320.014 49.3587 319.631 49.4727C319.253 49.582 318.826 49.6367 318.353 49.6367C317.664 49.6367 317.081 49.5137 316.603 49.2676C316.129 49.0215 315.769 48.7093 315.522 48.3311C315.281 47.9482 315.16 47.5563 315.16 47.1553H317.026C317.035 47.4242 317.104 47.6406 317.231 47.8047C317.364 47.9688 317.53 48.0872 317.73 48.1602C317.936 48.2331 318.157 48.2695 318.394 48.2695C318.649 48.2695 318.861 48.2354 319.029 48.167C319.198 48.0941 319.326 47.9984 319.412 47.8799C319.503 47.7568 319.549 47.6156 319.549 47.4561Z" fill="#131313"/>
<path opacity="0.5" d="M474.104 43.709V44.3379C474.104 45.0853 474.01 45.7552 473.823 46.3477C473.636 46.9401 473.368 47.4437 473.017 47.8584C472.666 48.2731 472.244 48.5898 471.752 48.8086C471.264 49.0273 470.717 49.1367 470.111 49.1367C469.523 49.1367 468.983 49.0273 468.491 48.8086C468.004 48.5898 467.58 48.2731 467.22 47.8584C466.864 47.4437 466.589 46.9401 466.393 46.3477C466.197 45.7552 466.099 45.0853 466.099 44.3379V43.709C466.099 42.9616 466.194 42.2939 466.386 41.7061C466.582 41.1136 466.857 40.61 467.213 40.1953C467.568 39.776 467.99 39.457 468.478 39.2383C468.97 39.0195 469.51 38.9102 470.098 38.9102C470.704 38.9102 471.251 39.0195 471.738 39.2383C472.23 39.457 472.652 39.776 473.003 40.1953C473.358 40.61 473.63 41.1136 473.816 41.7061C474.008 42.2939 474.104 42.9616 474.104 43.709ZM472.798 44.3379V43.6953C472.798 43.1029 472.736 42.5788 472.613 42.123C472.495 41.6673 472.319 41.2845 472.087 40.9746C471.854 40.6647 471.57 40.43 471.232 40.2705C470.9 40.111 470.521 40.0312 470.098 40.0312C469.688 40.0312 469.316 40.111 468.983 40.2705C468.655 40.43 468.373 40.6647 468.136 40.9746C467.903 41.2845 467.723 41.6673 467.596 42.123C467.468 42.5788 467.404 43.1029 467.404 43.6953V44.3379C467.404 44.9349 467.468 45.4635 467.596 45.9238C467.723 46.3796 467.906 46.7646 468.143 47.0791C468.384 47.389 468.669 47.6237 468.997 47.7832C469.33 47.9427 469.701 48.0225 470.111 48.0225C470.54 48.0225 470.92 47.9427 471.253 47.7832C471.586 47.6237 471.866 47.389 472.094 47.0791C472.326 46.7646 472.502 46.3796 472.62 45.9238C472.739 45.4635 472.798 44.9349 472.798 44.3379ZM478.902 41.6035V49H477.631V41.6035H478.902ZM481.384 41.6035V42.6289H475.197V41.6035H481.384ZM485.15 49.1367C484.635 49.1367 484.168 49.0501 483.749 48.877C483.334 48.6992 482.977 48.4508 482.676 48.1318C482.38 47.8128 482.152 47.4346 481.992 46.9971C481.833 46.5596 481.753 46.0811 481.753 45.5615V45.2744C481.753 44.6729 481.842 44.1374 482.02 43.668C482.197 43.194 482.439 42.793 482.744 42.4648C483.049 42.1367 483.396 41.8883 483.783 41.7197C484.171 41.5511 484.572 41.4668 484.986 41.4668C485.515 41.4668 485.971 41.5579 486.354 41.7402C486.741 41.9225 487.058 42.1777 487.304 42.5059C487.55 42.8294 487.732 43.2122 487.851 43.6543C487.969 44.0918 488.028 44.5703 488.028 45.0898V45.6572H482.505V44.625H486.764V44.5293C486.745 44.2012 486.677 43.8822 486.559 43.5723C486.445 43.2624 486.262 43.0072 486.012 42.8066C485.761 42.6061 485.419 42.5059 484.986 42.5059C484.699 42.5059 484.435 42.5674 484.193 42.6904C483.952 42.8089 483.744 42.9867 483.571 43.2236C483.398 43.4606 483.264 43.75 483.168 44.0918C483.072 44.4336 483.024 44.8278 483.024 45.2744V45.5615C483.024 45.9124 483.072 46.2428 483.168 46.5527C483.268 46.8581 483.412 47.127 483.599 47.3594C483.79 47.5918 484.02 47.7741 484.289 47.9062C484.562 48.0384 484.872 48.1045 485.219 48.1045C485.665 48.1045 486.044 48.0133 486.354 47.8311C486.663 47.6488 486.935 47.4049 487.167 47.0996L487.933 47.708C487.773 47.9495 487.57 48.1797 487.324 48.3984C487.078 48.6172 486.775 48.7949 486.415 48.9316C486.06 49.0684 485.638 49.1367 485.15 49.1367ZM494.447 41.6035V42.6494H490.872V41.6035H494.447ZM495.562 41.6035V49H494.297V41.6035H495.562ZM490.564 41.6035H491.836L491.645 45.1719C491.613 45.7233 491.56 46.2109 491.487 46.6348C491.419 47.054 491.323 47.4141 491.2 47.7148C491.082 48.0156 490.931 48.2617 490.749 48.4531C490.571 48.64 490.357 48.779 490.106 48.8701C489.856 48.9567 489.566 49 489.238 49H488.842V47.8857L489.115 47.8652C489.311 47.8516 489.478 47.806 489.614 47.7285C489.756 47.651 489.874 47.5371 489.97 47.3867C490.065 47.2318 490.143 47.0335 490.202 46.792C490.266 46.5505 490.314 46.2633 490.346 45.9307C490.382 45.598 490.41 45.2106 490.428 44.7686L490.564 41.6035ZM498.966 46.9971L502.377 41.6035H503.648V49H502.377V43.6064L498.966 49H497.708V41.6035H498.966V46.9971Z" fill="#131313"/>
<mask id="path-8-outside-2_75_4" maskUnits="userSpaceOnUse" x="252" y="64" width="257" height="33" fill="black">
<rect fill="white" x="252" y="64" width="257" height="33"/>
<path d="M252 64H509V96H252V64Z"/>
</mask>
<path d="M509 95H252V97H509V95Z" fill="black" fill-opacity="0.15" mask="url(#path-8-outside-2_75_4)"/>
<path d="M263.883 77.6035V85H262.229V77.6035H263.883ZM262.119 75.6621C262.119 75.4115 262.201 75.2041 262.365 75.04C262.534 74.8714 262.766 74.7871 263.062 74.7871C263.354 74.7871 263.584 74.8714 263.753 75.04C263.922 75.2041 264.006 75.4115 264.006 75.6621C264.006 75.9082 263.922 76.1133 263.753 76.2773C263.584 76.4414 263.354 76.5234 263.062 76.5234C262.766 76.5234 262.534 76.4414 262.365 76.2773C262.201 76.1133 262.119 75.9082 262.119 75.6621ZM270.199 83.4688V74.5H271.854V85H270.356L270.199 83.4688ZM265.387 81.3838V81.2402C265.387 80.6797 265.453 80.1693 265.585 79.709C265.717 79.2441 265.909 78.8454 266.159 78.5127C266.41 78.1755 266.715 77.918 267.075 77.7402C267.435 77.5579 267.841 77.4668 268.292 77.4668C268.739 77.4668 269.131 77.5534 269.468 77.7266C269.805 77.8997 270.092 78.1481 270.329 78.4717C270.566 78.7907 270.755 79.1735 270.896 79.6201C271.038 80.0622 271.138 80.5544 271.197 81.0967V81.5547C271.138 82.0833 271.038 82.5664 270.896 83.0039C270.755 83.4414 270.566 83.8197 270.329 84.1387C270.092 84.4577 269.803 84.7038 269.461 84.877C269.124 85.0501 268.729 85.1367 268.278 85.1367C267.832 85.1367 267.428 85.0433 267.068 84.8564C266.713 84.6696 266.41 84.4076 266.159 84.0703C265.909 83.7331 265.717 83.3366 265.585 82.8809C265.453 82.4206 265.387 81.9215 265.387 81.3838ZM267.034 81.2402V81.3838C267.034 81.721 267.064 82.0355 267.123 82.3271C267.187 82.6188 267.285 82.8763 267.417 83.0996C267.549 83.3184 267.72 83.4915 267.93 83.6191C268.144 83.7422 268.399 83.8037 268.695 83.8037C269.069 83.8037 269.377 83.7217 269.618 83.5576C269.86 83.3936 270.049 83.1725 270.186 82.8945C270.327 82.612 270.423 82.2975 270.473 81.9512V80.7139C270.445 80.445 270.388 80.1943 270.302 79.9619C270.22 79.7295 270.108 79.5267 269.967 79.3535C269.826 79.1758 269.65 79.0391 269.44 78.9434C269.235 78.8431 268.992 78.793 268.709 78.793C268.408 78.793 268.153 78.8568 267.943 78.9844C267.734 79.112 267.561 79.2874 267.424 79.5107C267.292 79.734 267.194 79.9938 267.13 80.29C267.066 80.5863 267.034 80.903 267.034 81.2402Z" fill="black"/>
<path opacity="0.5" d="M466.434 76.4688V85H465.303V76.4688H466.434ZM475.053 76.4688V85H473.916L469.621 78.4199V85H468.49V76.4688H469.621L473.934 83.0664V76.4688H475.053ZM480.033 76.4688V85H478.92V76.4688H480.033ZM482.775 76.4688V77.3945H476.184V76.4688H482.775ZM488.77 85.84H500.77V73.84H488.77V85.84Z" fill="black"/>
<mask id="path-12-outside-3_75_4" maskUnits="userSpaceOnUse" x="252" y="96" width="257" height="33" fill="black">
<rect fill="white" x="252" y="96" width="257" height="33"/>
<path d="M252 96H509V128H252V96Z"/>
</mask>
<path d="M509 127H252V129H509V127Z" fill="black" fill-opacity="0.15" mask="url(#path-12-outside-3_75_4)"/>
<path d="M263.802 109.604V117H262.147V109.604H263.802ZM262.038 107.662C262.038 107.411 262.12 107.204 262.284 107.04C262.453 106.871 262.685 106.787 262.981 106.787C263.273 106.787 263.503 106.871 263.672 107.04C263.84 107.204 263.925 107.411 263.925 107.662C263.925 107.908 263.84 108.113 263.672 108.277C263.503 108.441 263.273 108.523 262.981 108.523C262.685 108.523 262.453 108.441 262.284 108.277C262.12 108.113 262.038 107.908 262.038 107.662ZM268.628 115.824C268.897 115.824 269.138 115.772 269.353 115.667C269.571 115.558 269.747 115.407 269.879 115.216C270.016 115.024 270.091 114.803 270.104 114.553H271.656C271.647 115.031 271.506 115.466 271.232 115.858C270.959 116.25 270.597 116.562 270.146 116.795C269.694 117.023 269.195 117.137 268.648 117.137C268.083 117.137 267.591 117.041 267.172 116.85C266.753 116.654 266.404 116.385 266.126 116.043C265.848 115.701 265.638 115.307 265.497 114.86C265.36 114.414 265.292 113.935 265.292 113.425V113.186C265.292 112.675 265.36 112.197 265.497 111.75C265.638 111.299 265.848 110.902 266.126 110.561C266.404 110.219 266.753 109.952 267.172 109.761C267.591 109.565 268.081 109.467 268.642 109.467C269.234 109.467 269.754 109.585 270.2 109.822C270.647 110.055 270.998 110.381 271.253 110.8C271.513 111.215 271.647 111.698 271.656 112.249H270.104C270.091 111.976 270.022 111.729 269.899 111.511C269.781 111.287 269.612 111.11 269.394 110.978C269.179 110.845 268.922 110.779 268.621 110.779C268.288 110.779 268.013 110.848 267.794 110.984C267.575 111.117 267.404 111.299 267.281 111.531C267.158 111.759 267.069 112.017 267.015 112.304C266.965 112.586 266.939 112.88 266.939 113.186V113.425C266.939 113.73 266.965 114.026 267.015 114.313C267.065 114.601 267.151 114.858 267.274 115.086C267.402 115.309 267.575 115.489 267.794 115.626C268.013 115.758 268.291 115.824 268.628 115.824ZM272.606 113.384V113.227C272.606 112.693 272.684 112.199 272.839 111.743C272.994 111.283 273.217 110.884 273.509 110.547C273.805 110.205 274.165 109.941 274.589 109.754C275.017 109.562 275.5 109.467 276.038 109.467C276.58 109.467 277.063 109.562 277.487 109.754C277.916 109.941 278.278 110.205 278.574 110.547C278.87 110.884 279.096 111.283 279.251 111.743C279.406 112.199 279.483 112.693 279.483 113.227V113.384C279.483 113.917 279.406 114.411 279.251 114.867C279.096 115.323 278.87 115.722 278.574 116.063C278.278 116.401 277.918 116.665 277.494 116.856C277.07 117.043 276.59 117.137 276.052 117.137C275.509 117.137 275.024 117.043 274.596 116.856C274.172 116.665 273.812 116.401 273.516 116.063C273.219 115.722 272.994 115.323 272.839 114.867C272.684 114.411 272.606 113.917 272.606 113.384ZM274.254 113.227V113.384C274.254 113.716 274.288 114.031 274.356 114.327C274.425 114.623 274.532 114.883 274.678 115.106C274.824 115.33 275.01 115.505 275.238 115.633C275.466 115.76 275.737 115.824 276.052 115.824C276.357 115.824 276.621 115.76 276.845 115.633C277.073 115.505 277.259 115.33 277.405 115.106C277.551 114.883 277.658 114.623 277.727 114.327C277.799 114.031 277.836 113.716 277.836 113.384V113.227C277.836 112.898 277.799 112.589 277.727 112.297C277.658 112.001 277.549 111.739 277.398 111.511C277.253 111.283 277.066 111.105 276.838 110.978C276.615 110.845 276.348 110.779 276.038 110.779C275.728 110.779 275.459 110.845 275.231 110.978C275.008 111.105 274.824 111.283 274.678 111.511C274.532 111.739 274.425 112.001 274.356 112.297C274.288 112.589 274.254 112.898 274.254 113.227ZM282.498 111.183V117H280.851V109.604H282.402L282.498 111.183ZM282.204 113.028L281.671 113.021C281.675 112.497 281.748 112.017 281.89 111.579C282.035 111.142 282.236 110.766 282.491 110.451C282.751 110.137 283.061 109.895 283.421 109.727C283.781 109.553 284.182 109.467 284.624 109.467C284.979 109.467 285.301 109.517 285.588 109.617C285.88 109.713 286.128 109.87 286.333 110.089C286.543 110.308 286.702 110.592 286.812 110.943C286.921 111.29 286.976 111.716 286.976 112.222V117H285.321V112.215C285.321 111.859 285.269 111.579 285.164 111.374C285.064 111.164 284.916 111.016 284.72 110.93C284.528 110.839 284.289 110.793 284.002 110.793C283.719 110.793 283.466 110.852 283.243 110.971C283.02 111.089 282.831 111.251 282.676 111.456C282.525 111.661 282.409 111.898 282.327 112.167C282.245 112.436 282.204 112.723 282.204 113.028Z" fill="black"/>
<path opacity="0.5" d="M449.18 115.705L451.693 108.469H452.918L449.76 117H448.887L449.18 115.705ZM446.83 108.469L449.32 115.705L449.631 117H448.758L445.605 108.469H446.83ZM456.779 109.225L453.955 117H452.801L456.053 108.469H456.797L456.779 109.225ZM459.146 117L456.316 109.225L456.299 108.469H457.043L460.307 117H459.146ZM459 113.842V114.768H454.207V113.842H459ZM461.449 108.469H464.273C464.914 108.469 465.455 108.566 465.896 108.762C466.342 108.957 466.68 109.246 466.91 109.629C467.145 110.008 467.262 110.475 467.262 111.029C467.262 111.42 467.182 111.777 467.021 112.102C466.865 112.422 466.639 112.695 466.342 112.922C466.049 113.145 465.697 113.311 465.287 113.42L464.971 113.543H462.316L462.305 112.623H464.309C464.715 112.623 465.053 112.553 465.322 112.412C465.592 112.268 465.795 112.074 465.932 111.832C466.068 111.59 466.137 111.322 466.137 111.029C466.137 110.701 466.072 110.414 465.943 110.168C465.814 109.922 465.611 109.732 465.334 109.6C465.061 109.463 464.707 109.395 464.273 109.395H462.58V117H461.449V108.469ZM466.436 117L464.361 113.133L465.539 113.127L467.643 116.93V117H466.436ZM473.994 114.287H475.119C475.061 114.826 474.906 115.309 474.656 115.734C474.406 116.16 474.053 116.498 473.596 116.748C473.139 116.994 472.568 117.117 471.885 117.117C471.385 117.117 470.93 117.023 470.52 116.836C470.113 116.648 469.764 116.383 469.471 116.039C469.178 115.691 468.951 115.275 468.791 114.791C468.635 114.303 468.557 113.76 468.557 113.162V112.312C468.557 111.715 468.635 111.174 468.791 110.689C468.951 110.201 469.18 109.783 469.477 109.436C469.777 109.088 470.139 108.82 470.561 108.633C470.982 108.445 471.457 108.352 471.984 108.352C472.629 108.352 473.174 108.473 473.619 108.715C474.064 108.957 474.41 109.293 474.656 109.723C474.906 110.148 475.061 110.643 475.119 111.205H473.994C473.939 110.807 473.838 110.465 473.689 110.18C473.541 109.891 473.33 109.668 473.057 109.512C472.783 109.355 472.426 109.277 471.984 109.277C471.605 109.277 471.271 109.35 470.982 109.494C470.697 109.639 470.457 109.844 470.262 110.109C470.07 110.375 469.926 110.693 469.828 111.064C469.73 111.436 469.682 111.848 469.682 112.301V113.162C469.682 113.58 469.725 113.973 469.811 114.34C469.9 114.707 470.035 115.029 470.215 115.307C470.395 115.584 470.623 115.803 470.9 115.963C471.178 116.119 471.506 116.197 471.885 116.197C472.365 116.197 472.748 116.121 473.033 115.969C473.318 115.816 473.533 115.598 473.678 115.312C473.826 115.027 473.932 114.686 473.994 114.287ZM482.232 112.137V113.057H477.615V112.137H482.232ZM477.791 108.469V117H476.66V108.469H477.791ZM483.217 108.469V117H482.092V108.469H483.217ZM488.49 109.225L485.666 117H484.512L487.764 108.469H488.508L488.49 109.225ZM490.857 117L488.027 109.225L488.01 108.469H488.754L492.018 117H490.857ZM490.711 113.842V114.768H485.918V113.842H490.711ZM493.16 108.469H495.984C496.625 108.469 497.166 108.566 497.607 108.762C498.053 108.957 498.391 109.246 498.621 109.629C498.855 110.008 498.973 110.475 498.973 111.029C498.973 111.42 498.893 111.777 498.732 112.102C498.576 112.422 498.35 112.695 498.053 112.922C497.76 113.145 497.408 113.311 496.998 113.42L496.682 113.543H494.027L494.016 112.623H496.02C496.426 112.623 496.764 112.553 497.033 112.412C497.303 112.268 497.506 112.074 497.643 111.832C497.779 111.59 497.848 111.322 497.848 111.029C497.848 110.701 497.783 110.414 497.654 110.168C497.525 109.922 497.322 109.732 497.045 109.6C496.771 109.463 496.418 109.395 495.984 109.395H494.291V117H493.16V108.469ZM498.146 117L496.072 113.133L497.25 113.127L499.354 116.93V117H498.146Z" fill="black"/>
<mask id="path-16-outside-4_75_4" maskUnits="userSpaceOnUse" x="252" y="128" width="257" height="33" fill="black">
<rect fill="white" x="252" y="128" width="257" height="33"/>
<path d="M252 128H509V160H252V128Z"/>
</mask>
<path d="M509 159H252V161H509V159Z" fill="black" fill-opacity="0.15" mask="url(#path-16-outside-4_75_4)"/>
<path d="M263.961 143.183V149H262.313V141.604H263.865L263.961 143.183ZM263.667 145.028L263.134 145.021C263.138 144.497 263.211 144.017 263.353 143.579C263.498 143.142 263.699 142.766 263.954 142.451C264.214 142.137 264.524 141.895 264.884 141.727C265.244 141.553 265.645 141.467 266.087 141.467C266.442 141.467 266.764 141.517 267.051 141.617C267.342 141.713 267.591 141.87 267.796 142.089C268.006 142.308 268.165 142.592 268.274 142.943C268.384 143.29 268.438 143.716 268.438 144.222V149H266.784V144.215C266.784 143.859 266.732 143.579 266.627 143.374C266.527 143.164 266.379 143.016 266.183 142.93C265.991 142.839 265.752 142.793 265.465 142.793C265.182 142.793 264.929 142.852 264.706 142.971C264.483 143.089 264.294 143.251 264.139 143.456C263.988 143.661 263.872 143.898 263.79 144.167C263.708 144.436 263.667 144.723 263.667 145.028ZM274.29 147.517V143.989C274.29 143.725 274.242 143.497 274.146 143.306C274.051 143.114 273.905 142.966 273.709 142.861C273.518 142.757 273.276 142.704 272.984 142.704C272.715 142.704 272.483 142.75 272.287 142.841C272.091 142.932 271.938 143.055 271.829 143.21C271.72 143.365 271.665 143.54 271.665 143.736H270.024C270.024 143.445 270.095 143.162 270.236 142.889C270.378 142.615 270.583 142.371 270.852 142.157C271.12 141.943 271.442 141.774 271.815 141.651C272.189 141.528 272.608 141.467 273.073 141.467C273.629 141.467 274.121 141.56 274.55 141.747C274.983 141.934 275.322 142.216 275.568 142.595C275.819 142.968 275.944 143.438 275.944 144.003V147.291C275.944 147.628 275.967 147.931 276.013 148.2C276.063 148.465 276.133 148.695 276.225 148.891V149H274.536C274.459 148.822 274.397 148.597 274.352 148.323C274.311 148.045 274.29 147.776 274.29 147.517ZM274.529 144.502L274.543 145.521H273.36C273.055 145.521 272.786 145.55 272.554 145.609C272.321 145.664 272.128 145.746 271.973 145.855C271.818 145.965 271.701 146.097 271.624 146.252C271.547 146.407 271.508 146.582 271.508 146.778C271.508 146.974 271.553 147.154 271.645 147.318C271.736 147.478 271.868 147.603 272.041 147.694C272.219 147.785 272.433 147.831 272.684 147.831C273.021 147.831 273.315 147.763 273.565 147.626C273.821 147.485 274.021 147.314 274.167 147.113C274.313 146.908 274.39 146.715 274.399 146.532L274.933 147.264C274.878 147.451 274.785 147.651 274.652 147.865C274.52 148.079 274.347 148.285 274.133 148.48C273.923 148.672 273.67 148.829 273.374 148.952C273.082 149.075 272.745 149.137 272.362 149.137C271.879 149.137 271.449 149.041 271.07 148.85C270.692 148.654 270.396 148.392 270.182 148.063C269.967 147.731 269.86 147.355 269.86 146.936C269.86 146.544 269.933 146.197 270.079 145.896C270.229 145.591 270.448 145.336 270.735 145.131C271.027 144.926 271.382 144.771 271.802 144.666C272.221 144.557 272.7 144.502 273.237 144.502H274.529ZM279.314 143.107V149H277.667V141.604H279.219L279.314 143.107ZM279.048 145.028L278.487 145.021C278.487 144.511 278.551 144.039 278.679 143.606C278.806 143.174 278.993 142.798 279.239 142.479C279.485 142.155 279.791 141.907 280.155 141.733C280.524 141.556 280.951 141.467 281.434 141.467C281.771 141.467 282.078 141.517 282.356 141.617C282.639 141.713 282.883 141.866 283.088 142.075C283.298 142.285 283.457 142.554 283.566 142.882C283.68 143.21 283.737 143.606 283.737 144.071V149H282.09V144.215C282.09 143.855 282.035 143.572 281.926 143.367C281.821 143.162 281.668 143.016 281.468 142.93C281.272 142.839 281.037 142.793 280.764 142.793C280.454 142.793 280.189 142.852 279.971 142.971C279.757 143.089 279.581 143.251 279.444 143.456C279.308 143.661 279.207 143.898 279.144 144.167C279.08 144.436 279.048 144.723 279.048 145.028ZM283.635 144.591L282.862 144.762C282.862 144.315 282.924 143.894 283.047 143.497C283.174 143.096 283.359 142.745 283.601 142.444C283.847 142.139 284.15 141.9 284.51 141.727C284.87 141.553 285.282 141.467 285.747 141.467C286.125 141.467 286.463 141.519 286.759 141.624C287.06 141.724 287.315 141.884 287.524 142.103C287.734 142.321 287.894 142.606 288.003 142.957C288.112 143.303 288.167 143.723 288.167 144.215V149H286.513V144.208C286.513 143.834 286.458 143.545 286.349 143.34C286.244 143.135 286.093 142.993 285.897 142.916C285.701 142.834 285.467 142.793 285.193 142.793C284.938 142.793 284.713 142.841 284.517 142.937C284.325 143.028 284.163 143.158 284.031 143.326C283.899 143.49 283.799 143.679 283.73 143.894C283.667 144.108 283.635 144.34 283.635 144.591ZM293.123 149.137C292.576 149.137 292.082 149.048 291.64 148.87C291.202 148.688 290.828 148.435 290.519 148.111C290.213 147.788 289.979 147.407 289.814 146.97C289.65 146.532 289.568 146.061 289.568 145.555V145.281C289.568 144.702 289.653 144.178 289.821 143.709C289.99 143.24 290.225 142.839 290.525 142.506C290.826 142.169 291.182 141.911 291.592 141.733C292.002 141.556 292.446 141.467 292.925 141.467C293.453 141.467 293.916 141.556 294.312 141.733C294.709 141.911 295.037 142.162 295.297 142.485C295.561 142.804 295.757 143.185 295.885 143.627C296.017 144.069 296.083 144.557 296.083 145.09V145.794H290.368V144.611H294.456V144.481C294.447 144.185 294.388 143.907 294.278 143.647C294.174 143.388 294.012 143.178 293.793 143.019C293.574 142.859 293.283 142.779 292.918 142.779C292.645 142.779 292.401 142.839 292.187 142.957C291.977 143.071 291.801 143.237 291.66 143.456C291.519 143.675 291.41 143.939 291.332 144.249C291.259 144.554 291.223 144.898 291.223 145.281V145.555C291.223 145.878 291.266 146.179 291.353 146.457C291.444 146.73 291.576 146.97 291.749 147.175C291.922 147.38 292.132 147.542 292.378 147.66C292.624 147.774 292.904 147.831 293.219 147.831C293.615 147.831 293.968 147.751 294.278 147.592C294.588 147.432 294.857 147.207 295.085 146.915L295.953 147.756C295.794 147.988 295.586 148.212 295.331 148.426C295.076 148.635 294.764 148.806 294.395 148.938C294.03 149.071 293.606 149.137 293.123 149.137Z" fill="black"/>
<path opacity="0.5" d="M449.18 147.705L451.693 140.469H452.918L449.76 149H448.887L449.18 147.705ZM446.83 140.469L449.32 147.705L449.631 149H448.758L445.605 140.469H446.83ZM456.779 141.225L453.955 149H452.801L456.053 140.469H456.797L456.779 141.225ZM459.146 149L456.316 141.225L456.299 140.469H457.043L460.307 149H459.146ZM459 145.842V146.768H454.207V145.842H459ZM461.449 140.469H464.273C464.914 140.469 465.455 140.566 465.896 140.762C466.342 140.957 466.68 141.246 466.91 141.629C467.145 142.008 467.262 142.475 467.262 143.029C467.262 143.42 467.182 143.777 467.021 144.102C466.865 144.422 466.639 144.695 466.342 144.922C466.049 145.145 465.697 145.311 465.287 145.42L464.971 145.543H462.316L462.305 144.623H464.309C464.715 144.623 465.053 144.553 465.322 144.412C465.592 144.268 465.795 144.074 465.932 143.832C466.068 143.59 466.137 143.322 466.137 143.029C466.137 142.701 466.072 142.414 465.943 142.168C465.814 141.922 465.611 141.732 465.334 141.6C465.061 141.463 464.707 141.395 464.273 141.395H462.58V149H461.449V140.469ZM466.436 149L464.361 145.133L465.539 145.127L467.643 148.93V149H466.436ZM473.994 146.287H475.119C475.061 146.826 474.906 147.309 474.656 147.734C474.406 148.16 474.053 148.498 473.596 148.748C473.139 148.994 472.568 149.117 471.885 149.117C471.385 149.117 470.93 149.023 470.52 148.836C470.113 148.648 469.764 148.383 469.471 148.039C469.178 147.691 468.951 147.275 468.791 146.791C468.635 146.303 468.557 145.76 468.557 145.162V144.312C468.557 143.715 468.635 143.174 468.791 142.689C468.951 142.201 469.18 141.783 469.477 141.436C469.777 141.088 470.139 140.82 470.561 140.633C470.982 140.445 471.457 140.352 471.984 140.352C472.629 140.352 473.174 140.473 473.619 140.715C474.064 140.957 474.41 141.293 474.656 141.723C474.906 142.148 475.061 142.643 475.119 143.205H473.994C473.939 142.807 473.838 142.465 473.689 142.18C473.541 141.891 473.33 141.668 473.057 141.512C472.783 141.355 472.426 141.277 471.984 141.277C471.605 141.277 471.271 141.35 470.982 141.494C470.697 141.639 470.457 141.844 470.262 142.109C470.07 142.375 469.926 142.693 469.828 143.064C469.73 143.436 469.682 143.848 469.682 144.301V145.162C469.682 145.58 469.725 145.973 469.811 146.34C469.9 146.707 470.035 147.029 470.215 147.307C470.395 147.584 470.623 147.803 470.9 147.963C471.178 148.119 471.506 148.197 471.885 148.197C472.365 148.197 472.748 148.121 473.033 147.969C473.318 147.816 473.533 147.598 473.678 147.312C473.826 147.027 473.932 146.686 473.994 146.287ZM482.232 144.137V145.057H477.615V144.137H482.232ZM477.791 140.469V149H476.66V140.469H477.791ZM483.217 140.469V149H482.092V140.469H483.217ZM488.49 141.225L485.666 149H484.512L487.764 140.469H488.508L488.49 141.225ZM490.857 149L488.027 141.225L488.01 140.469H488.754L492.018 149H490.857ZM490.711 145.842V146.768H485.918V145.842H490.711ZM493.16 140.469H495.984C496.625 140.469 497.166 140.566 497.607 140.762C498.053 140.957 498.391 141.246 498.621 141.629C498.855 142.008 498.973 142.475 498.973 143.029C498.973 143.42 498.893 143.777 498.732 144.102C498.576 144.422 498.35 144.695 498.053 144.922C497.76 145.145 497.408 145.311 496.998 145.42L496.682 145.543H494.027L494.016 144.623H496.02C496.426 144.623 496.764 144.553 497.033 144.412C497.303 144.268 497.506 144.074 497.643 143.832C497.779 143.59 497.848 143.322 497.848 143.029C497.848 142.701 497.783 142.414 497.654 142.168C497.525 141.922 497.322 141.732 497.045 141.6C496.771 141.463 496.418 141.395 495.984 141.395H494.291V149H493.16V140.469ZM498.146 149L496.072 145.133L497.25 145.127L499.354 148.93V149H498.146Z" fill="black"/>
<mask id="path-20-outside-5_75_4" maskUnits="userSpaceOnUse" x="252" y="160" width="257" height="33" fill="black">
<rect fill="white" x="252" y="160" width="257" height="33"/>
<path d="M252 160H509V192H252V160Z"/>
</mask>
<path d="M509 191H252V193H509V191Z" fill="black" fill-opacity="0.15" mask="url(#path-20-outside-5_75_4)"/>
<path d="M264.182 179.359L265.891 173.604H266.943L266.656 175.326L264.934 181H263.99L264.182 179.359ZM263.177 173.604L264.51 179.387L264.619 181H263.566L261.563 173.604H263.177ZM268.543 179.318L269.835 173.604H271.441L269.445 181H268.393L268.543 179.318ZM267.121 173.604L268.81 179.291L269.021 181H268.078L266.335 175.319L266.048 173.604H267.121ZM277.074 179.469V170.5H278.729V181H277.231L277.074 179.469ZM272.262 177.384V177.24C272.262 176.68 272.328 176.169 272.46 175.709C272.592 175.244 272.784 174.845 273.034 174.513C273.285 174.175 273.59 173.918 273.95 173.74C274.31 173.558 274.716 173.467 275.167 173.467C275.614 173.467 276.006 173.553 276.343 173.727C276.68 173.9 276.967 174.148 277.204 174.472C277.441 174.791 277.63 175.174 277.771 175.62C277.913 176.062 278.013 176.554 278.072 177.097V177.555C278.013 178.083 277.913 178.566 277.771 179.004C277.63 179.441 277.441 179.82 277.204 180.139C276.967 180.458 276.678 180.704 276.336 180.877C275.999 181.05 275.604 181.137 275.153 181.137C274.707 181.137 274.303 181.043 273.943 180.856C273.588 180.67 273.285 180.408 273.034 180.07C272.784 179.733 272.592 179.337 272.46 178.881C272.328 178.421 272.262 177.922 272.262 177.384ZM273.909 177.24V177.384C273.909 177.721 273.939 178.035 273.998 178.327C274.062 178.619 274.16 178.876 274.292 179.1C274.424 179.318 274.595 179.492 274.805 179.619C275.019 179.742 275.274 179.804 275.57 179.804C275.944 179.804 276.252 179.722 276.493 179.558C276.735 179.394 276.924 179.173 277.061 178.895C277.202 178.612 277.298 178.298 277.348 177.951V176.714C277.32 176.445 277.263 176.194 277.177 175.962C277.095 175.729 276.983 175.527 276.842 175.354C276.701 175.176 276.525 175.039 276.315 174.943C276.11 174.843 275.867 174.793 275.584 174.793C275.283 174.793 275.028 174.857 274.818 174.984C274.609 175.112 274.436 175.287 274.299 175.511C274.167 175.734 274.069 175.994 274.005 176.29C273.941 176.586 273.909 176.903 273.909 177.24ZM285.852 181V182.285H279.617V181H285.852ZM288.955 181H287.308V172.893C287.308 172.341 287.41 171.879 287.615 171.505C287.825 171.127 288.123 170.842 288.511 170.65C288.898 170.454 289.356 170.356 289.885 170.356C290.049 170.356 290.211 170.368 290.37 170.391C290.53 170.409 290.685 170.438 290.835 170.479L290.794 171.751C290.703 171.728 290.603 171.712 290.493 171.703C290.388 171.694 290.274 171.689 290.151 171.689C289.901 171.689 289.684 171.737 289.502 171.833C289.324 171.924 289.188 172.059 289.092 172.236C289.001 172.414 288.955 172.633 288.955 172.893V181ZM290.479 173.604V174.807H286.173V173.604H290.479ZM294.772 181.137C294.226 181.137 293.731 181.048 293.289 180.87C292.852 180.688 292.478 180.435 292.168 180.111C291.863 179.788 291.628 179.407 291.464 178.97C291.3 178.532 291.218 178.061 291.218 177.555V177.281C291.218 176.702 291.302 176.178 291.471 175.709C291.639 175.24 291.874 174.839 292.175 174.506C292.476 174.169 292.831 173.911 293.241 173.733C293.651 173.556 294.096 173.467 294.574 173.467C295.103 173.467 295.565 173.556 295.962 173.733C296.358 173.911 296.687 174.162 296.946 174.485C297.211 174.804 297.407 175.185 297.534 175.627C297.666 176.069 297.732 176.557 297.732 177.09V177.794H292.018V176.611H296.105V176.481C296.096 176.185 296.037 175.907 295.928 175.647C295.823 175.388 295.661 175.178 295.442 175.019C295.224 174.859 294.932 174.779 294.567 174.779C294.294 174.779 294.05 174.839 293.836 174.957C293.626 175.071 293.451 175.237 293.31 175.456C293.168 175.675 293.059 175.939 292.981 176.249C292.909 176.554 292.872 176.898 292.872 177.281V177.555C292.872 177.878 292.915 178.179 293.002 178.457C293.093 178.73 293.225 178.97 293.398 179.175C293.572 179.38 293.781 179.542 294.027 179.66C294.273 179.774 294.554 179.831 294.868 179.831C295.265 179.831 295.618 179.751 295.928 179.592C296.238 179.432 296.507 179.207 296.734 178.915L297.603 179.756C297.443 179.988 297.236 180.212 296.98 180.426C296.725 180.635 296.413 180.806 296.044 180.938C295.679 181.071 295.256 181.137 294.772 181.137ZM302.278 181.137C301.731 181.137 301.237 181.048 300.795 180.87C300.357 180.688 299.984 180.435 299.674 180.111C299.368 179.788 299.134 179.407 298.97 178.97C298.806 178.532 298.724 178.061 298.724 177.555V177.281C298.724 176.702 298.808 176.178 298.977 175.709C299.145 175.24 299.38 174.839 299.681 174.506C299.981 174.169 300.337 173.911 300.747 173.733C301.157 173.556 301.602 173.467 302.08 173.467C302.609 173.467 303.071 173.556 303.468 173.733C303.864 173.911 304.192 174.162 304.452 174.485C304.716 174.804 304.912 175.185 305.04 175.627C305.172 176.069 305.238 176.557 305.238 177.09V177.794H299.523V176.611H303.611V176.481C303.602 176.185 303.543 175.907 303.434 175.647C303.329 175.388 303.167 175.178 302.948 175.019C302.729 174.859 302.438 174.779 302.073 174.779C301.8 174.779 301.556 174.839 301.342 174.957C301.132 175.071 300.957 175.237 300.815 175.456C300.674 175.675 300.565 175.939 300.487 176.249C300.414 176.554 300.378 176.898 300.378 177.281V177.555C300.378 177.878 300.421 178.179 300.508 178.457C300.599 178.73 300.731 178.97 300.904 179.175C301.077 179.38 301.287 179.542 301.533 179.66C301.779 179.774 302.06 179.831 302.374 179.831C302.771 179.831 303.124 179.751 303.434 179.592C303.743 179.432 304.012 179.207 304.24 178.915L305.108 179.756C304.949 179.988 304.742 180.212 304.486 180.426C304.231 180.635 303.919 180.806 303.55 180.938C303.185 181.071 302.761 181.137 302.278 181.137Z" fill="black"/>
<path opacity="0.5" d="M452.686 171.469V180H451.555V171.469H452.686ZM461.305 171.469V180H460.168L455.873 173.42V180H454.742V171.469H455.873L460.186 178.066V171.469H461.305ZM466.285 171.469V180H465.172V171.469H466.285ZM469.027 171.469V172.395H462.436V171.469H469.027ZM475.713 179.08V180H471.195V179.08H475.713ZM471.424 171.469V180H470.293V171.469H471.424ZM475.115 175.137V176.057H471.195V175.137H475.115ZM475.654 171.469V172.395H471.195V171.469H475.654ZM483.418 175.752V178.875C483.312 179.031 483.145 179.207 482.914 179.402C482.684 179.594 482.365 179.762 481.959 179.906C481.557 180.047 481.037 180.117 480.4 180.117C479.881 180.117 479.402 180.027 478.965 179.848C478.531 179.664 478.154 179.398 477.834 179.051C477.518 178.699 477.271 178.273 477.096 177.773C476.924 177.27 476.838 176.699 476.838 176.062V175.4C476.838 174.764 476.912 174.195 477.061 173.695C477.213 173.195 477.436 172.771 477.729 172.424C478.021 172.072 478.381 171.807 478.807 171.627C479.232 171.443 479.721 171.352 480.271 171.352C480.924 171.352 481.469 171.465 481.906 171.691C482.348 171.914 482.691 172.223 482.938 172.617C483.188 173.012 483.348 173.461 483.418 173.965H482.287C482.236 173.656 482.135 173.375 481.982 173.121C481.834 172.867 481.621 172.664 481.344 172.512C481.066 172.355 480.709 172.277 480.271 172.277C479.877 172.277 479.535 172.35 479.246 172.494C478.957 172.639 478.719 172.846 478.531 173.115C478.344 173.385 478.203 173.711 478.109 174.094C478.02 174.477 477.975 174.908 477.975 175.389V176.062C477.975 176.555 478.031 176.994 478.145 177.381C478.262 177.768 478.428 178.098 478.643 178.371C478.857 178.641 479.113 178.846 479.41 178.986C479.711 179.127 480.043 179.197 480.406 179.197C480.809 179.197 481.135 179.164 481.385 179.098C481.635 179.027 481.83 178.945 481.971 178.852C482.111 178.754 482.219 178.662 482.293 178.576V176.666H480.318V175.752H483.418ZM490.713 179.08V180H486.195V179.08H490.713ZM486.424 171.469V180H485.293V171.469H486.424ZM490.115 175.137V176.057H486.195V175.137H490.115ZM490.654 171.469V172.395H486.195V171.469H490.654ZM492.113 171.469H494.938C495.578 171.469 496.119 171.566 496.561 171.762C497.006 171.957 497.344 172.246 497.574 172.629C497.809 173.008 497.926 173.475 497.926 174.029C497.926 174.42 497.846 174.777 497.686 175.102C497.529 175.422 497.303 175.695 497.006 175.922C496.713 176.145 496.361 176.311 495.951 176.42L495.635 176.543H492.98L492.969 175.623H494.973C495.379 175.623 495.717 175.553 495.986 175.412C496.256 175.268 496.459 175.074 496.596 174.832C496.732 174.59 496.801 174.322 496.801 174.029C496.801 173.701 496.736 173.414 496.607 173.168C496.479 172.922 496.275 172.732 495.998 172.6C495.725 172.463 495.371 172.395 494.938 172.395H493.244V180H492.113V171.469ZM497.1 180L495.025 176.133L496.203 176.127L498.307 179.93V180H497.1Z" fill="black"/>
<mask id="path-24-outside-6_75_4" maskUnits="userSpaceOnUse" x="252" y="192" width="257" height="33" fill="black">
<rect fill="white" x="252" y="192" width="257" height="33"/>
<path d="M252 192H509V224H252V192Z"/>
</mask>
<path d="M509 223H252V225H509V223Z" fill="black" fill-opacity="0.15" mask="url(#path-24-outside-6_75_4)"/>
<path d="M264.182 211.359L265.891 205.604H266.943L266.656 207.326L264.934 213H263.99L264.182 211.359ZM263.177 205.604L264.51 211.387L264.619 213H263.566L261.563 205.604H263.177ZM268.543 211.318L269.835 205.604H271.441L269.445 213H268.393L268.543 211.318ZM267.121 205.604L268.81 211.291L269.021 213H268.078L266.335 207.319L266.048 205.604H267.121ZM277.074 211.469V202.5H278.729V213H277.231L277.074 211.469ZM272.262 209.384V209.24C272.262 208.68 272.328 208.169 272.46 207.709C272.592 207.244 272.784 206.845 273.034 206.513C273.285 206.175 273.59 205.918 273.95 205.74C274.31 205.558 274.716 205.467 275.167 205.467C275.614 205.467 276.006 205.553 276.343 205.727C276.68 205.9 276.967 206.148 277.204 206.472C277.441 206.791 277.63 207.174 277.771 207.62C277.913 208.062 278.013 208.554 278.072 209.097V209.555C278.013 210.083 277.913 210.566 277.771 211.004C277.63 211.441 277.441 211.82 277.204 212.139C276.967 212.458 276.678 212.704 276.336 212.877C275.999 213.05 275.604 213.137 275.153 213.137C274.707 213.137 274.303 213.043 273.943 212.856C273.588 212.67 273.285 212.408 273.034 212.07C272.784 211.733 272.592 211.337 272.46 210.881C272.328 210.421 272.262 209.922 272.262 209.384ZM273.909 209.24V209.384C273.909 209.721 273.939 210.035 273.998 210.327C274.062 210.619 274.16 210.876 274.292 211.1C274.424 211.318 274.595 211.492 274.805 211.619C275.019 211.742 275.274 211.804 275.57 211.804C275.944 211.804 276.252 211.722 276.493 211.558C276.735 211.394 276.924 211.173 277.061 210.895C277.202 210.612 277.298 210.298 277.348 209.951V208.714C277.32 208.445 277.263 208.194 277.177 207.962C277.095 207.729 276.983 207.527 276.842 207.354C276.701 207.176 276.525 207.039 276.315 206.943C276.11 206.843 275.867 206.793 275.584 206.793C275.283 206.793 275.028 206.857 274.818 206.984C274.609 207.112 274.436 207.287 274.299 207.511C274.167 207.734 274.069 207.994 274.005 208.29C273.941 208.586 273.909 208.903 273.909 209.24ZM285.852 213V214.285H279.617V213H285.852ZM288.955 213H287.308V204.893C287.308 204.341 287.41 203.879 287.615 203.505C287.825 203.127 288.123 202.842 288.511 202.65C288.898 202.454 289.356 202.356 289.885 202.356C290.049 202.356 290.211 202.368 290.37 202.391C290.53 202.409 290.685 202.438 290.835 202.479L290.794 203.751C290.703 203.728 290.603 203.712 290.493 203.703C290.388 203.694 290.274 203.689 290.151 203.689C289.901 203.689 289.684 203.737 289.502 203.833C289.324 203.924 289.188 204.059 289.092 204.236C289.001 204.414 288.955 204.633 288.955 204.893V213ZM290.479 205.604V206.807H286.173V205.604H290.479ZM294.772 213.137C294.226 213.137 293.731 213.048 293.289 212.87C292.852 212.688 292.478 212.435 292.168 212.111C291.863 211.788 291.628 211.407 291.464 210.97C291.3 210.532 291.218 210.061 291.218 209.555V209.281C291.218 208.702 291.302 208.178 291.471 207.709C291.639 207.24 291.874 206.839 292.175 206.506C292.476 206.169 292.831 205.911 293.241 205.733C293.651 205.556 294.096 205.467 294.574 205.467C295.103 205.467 295.565 205.556 295.962 205.733C296.358 205.911 296.687 206.162 296.946 206.485C297.211 206.804 297.407 207.185 297.534 207.627C297.666 208.069 297.732 208.557 297.732 209.09V209.794H292.018V208.611H296.105V208.481C296.096 208.185 296.037 207.907 295.928 207.647C295.823 207.388 295.661 207.178 295.442 207.019C295.224 206.859 294.932 206.779 294.567 206.779C294.294 206.779 294.05 206.839 293.836 206.957C293.626 207.071 293.451 207.237 293.31 207.456C293.168 207.675 293.059 207.939 292.981 208.249C292.909 208.554 292.872 208.898 292.872 209.281V209.555C292.872 209.878 292.915 210.179 293.002 210.457C293.093 210.73 293.225 210.97 293.398 211.175C293.572 211.38 293.781 211.542 294.027 211.66C294.273 211.774 294.554 211.831 294.868 211.831C295.265 211.831 295.618 211.751 295.928 211.592C296.238 211.432 296.507 211.207 296.734 210.915L297.603 211.756C297.443 211.988 297.236 212.212 296.98 212.426C296.725 212.635 296.413 212.806 296.044 212.938C295.679 213.071 295.256 213.137 294.772 213.137ZM302.278 213.137C301.731 213.137 301.237 213.048 300.795 212.87C300.357 212.688 299.984 212.435 299.674 212.111C299.368 211.788 299.134 211.407 298.97 210.97C298.806 210.532 298.724 210.061 298.724 209.555V209.281C298.724 208.702 298.808 208.178 298.977 207.709C299.145 207.24 299.38 206.839 299.681 206.506C299.981 206.169 300.337 205.911 300.747 205.733C301.157 205.556 301.602 205.467 302.08 205.467C302.609 205.467 303.071 205.556 303.468 205.733C303.864 205.911 304.192 206.162 304.452 206.485C304.716 206.804 304.912 207.185 305.04 207.627C305.172 208.069 305.238 208.557 305.238 209.09V209.794H299.523V208.611H303.611V208.481C303.602 208.185 303.543 207.907 303.434 207.647C303.329 207.388 303.167 207.178 302.948 207.019C302.729 206.859 302.438 206.779 302.073 206.779C301.8 206.779 301.556 206.839 301.342 206.957C301.132 207.071 300.957 207.237 300.815 207.456C300.674 207.675 300.565 207.939 300.487 208.249C300.414 208.554 300.378 208.898 300.378 209.281V209.555C300.378 209.878 300.421 210.179 300.508 210.457C300.599 210.73 300.731 210.97 300.904 211.175C301.077 211.38 301.287 211.542 301.533 211.66C301.779 211.774 302.06 211.831 302.374 211.831C302.771 211.831 303.124 211.751 303.434 211.592C303.743 211.432 304.012 211.207 304.24 210.915L305.108 211.756C304.949 211.988 304.742 212.212 304.486 212.426C304.231 212.635 303.919 212.806 303.55 212.938C303.185 213.071 302.761 213.137 302.278 213.137Z" fill="black"/>
<path opacity="0.5" d="M452.686 203.469V212H451.555V203.469H452.686ZM461.305 203.469V212H460.168L455.873 205.42V212H454.742V203.469H455.873L460.186 210.066V203.469H461.305ZM466.285 203.469V212H465.172V203.469H466.285ZM469.027 203.469V204.395H462.436V203.469H469.027ZM475.713 211.08V212H471.195V211.08H475.713ZM471.424 203.469V212H470.293V203.469H471.424ZM475.115 207.137V208.057H471.195V207.137H475.115ZM475.654 203.469V204.395H471.195V203.469H475.654ZM483.418 207.752V210.875C483.312 211.031 483.145 211.207 482.914 211.402C482.684 211.594 482.365 211.762 481.959 211.906C481.557 212.047 481.037 212.117 480.4 212.117C479.881 212.117 479.402 212.027 478.965 211.848C478.531 211.664 478.154 211.398 477.834 211.051C477.518 210.699 477.271 210.273 477.096 209.773C476.924 209.27 476.838 208.699 476.838 208.062V207.4C476.838 206.764 476.912 206.195 477.061 205.695C477.213 205.195 477.436 204.771 477.729 204.424C478.021 204.072 478.381 203.807 478.807 203.627C479.232 203.443 479.721 203.352 480.271 203.352C480.924 203.352 481.469 203.465 481.906 203.691C482.348 203.914 482.691 204.223 482.938 204.617C483.188 205.012 483.348 205.461 483.418 205.965H482.287C482.236 205.656 482.135 205.375 481.982 205.121C481.834 204.867 481.621 204.664 481.344 204.512C481.066 204.355 480.709 204.277 480.271 204.277C479.877 204.277 479.535 204.35 479.246 204.494C478.957 204.639 478.719 204.846 478.531 205.115C478.344 205.385 478.203 205.711 478.109 206.094C478.02 206.477 477.975 206.908 477.975 207.389V208.062C477.975 208.555 478.031 208.994 478.145 209.381C478.262 209.768 478.428 210.098 478.643 210.371C478.857 210.641 479.113 210.846 479.41 210.986C479.711 211.127 480.043 211.197 480.406 211.197C480.809 211.197 481.135 211.164 481.385 211.098C481.635 211.027 481.83 210.945 481.971 210.852C482.111 210.754 482.219 210.662 482.293 210.576V208.666H480.318V207.752H483.418ZM490.713 211.08V212H486.195V211.08H490.713ZM486.424 203.469V212H485.293V203.469H486.424ZM490.115 207.137V208.057H486.195V207.137H490.115ZM490.654 203.469V204.395H486.195V203.469H490.654ZM492.113 203.469H494.938C495.578 203.469 496.119 203.566 496.561 203.762C497.006 203.957 497.344 204.246 497.574 204.629C497.809 205.008 497.926 205.475 497.926 206.029C497.926 206.42 497.846 206.777 497.686 207.102C497.529 207.422 497.303 207.695 497.006 207.922C496.713 208.145 496.361 208.311 495.951 208.42L495.635 208.543H492.98L492.969 207.623H494.973C495.379 207.623 495.717 207.553 495.986 207.412C496.256 207.268 496.459 207.074 496.596 206.832C496.732 206.59 496.801 206.322 496.801 206.029C496.801 205.701 496.736 205.414 496.607 205.168C496.479 204.922 496.275 204.732 495.998 204.6C495.725 204.463 495.371 204.395 494.938 204.395H493.244V212H492.113V203.469ZM497.1 212L495.025 208.133L496.203 208.127L498.307 211.93V212H497.1Z" fill="black"/>
<path d="M266.371 243.469V234.5H268.025V245H266.528L266.371 243.469ZM261.559 241.384V241.24C261.559 240.68 261.625 240.169 261.757 239.709C261.889 239.244 262.08 238.845 262.331 238.513C262.582 238.175 262.887 237.918 263.247 237.74C263.607 237.558 264.013 237.467 264.464 237.467C264.91 237.467 265.302 237.553 265.64 237.727C265.977 237.9 266.264 238.148 266.501 238.472C266.738 238.791 266.927 239.174 267.068 239.62C267.21 240.062 267.31 240.554 267.369 241.097V241.555C267.31 242.083 267.21 242.566 267.068 243.004C266.927 243.441 266.738 243.82 266.501 244.139C266.264 244.458 265.975 244.704 265.633 244.877C265.296 245.05 264.901 245.137 264.45 245.137C264.004 245.137 263.6 245.043 263.24 244.856C262.885 244.67 262.582 244.408 262.331 244.07C262.08 243.733 261.889 243.337 261.757 242.881C261.625 242.421 261.559 241.922 261.559 241.384ZM263.206 241.24V241.384C263.206 241.721 263.236 242.035 263.295 242.327C263.359 242.619 263.457 242.876 263.589 243.1C263.721 243.318 263.892 243.492 264.102 243.619C264.316 243.742 264.571 243.804 264.867 243.804C265.241 243.804 265.549 243.722 265.79 243.558C266.032 243.394 266.221 243.173 266.357 242.895C266.499 242.612 266.594 242.298 266.645 241.951V240.714C266.617 240.445 266.56 240.194 266.474 239.962C266.392 239.729 266.28 239.527 266.139 239.354C265.997 239.176 265.822 239.039 265.612 238.943C265.407 238.843 265.163 238.793 264.881 238.793C264.58 238.793 264.325 238.857 264.115 238.984C263.906 239.112 263.732 239.287 263.596 239.511C263.464 239.734 263.366 239.994 263.302 240.29C263.238 240.586 263.206 240.903 263.206 241.24ZM271.512 237.604V245H269.857V237.604H271.512ZM269.748 235.662C269.748 235.411 269.83 235.204 269.994 235.04C270.163 234.871 270.395 234.787 270.691 234.787C270.983 234.787 271.213 234.871 271.382 235.04C271.55 235.204 271.635 235.411 271.635 235.662C271.635 235.908 271.55 236.113 271.382 236.277C271.213 236.441 270.983 236.523 270.691 236.523C270.395 236.523 270.163 236.441 269.994 236.277C269.83 236.113 269.748 235.908 269.748 235.662ZM277.466 242.997C277.466 242.833 277.425 242.685 277.343 242.553C277.261 242.416 277.104 242.293 276.871 242.184C276.643 242.074 276.306 241.974 275.859 241.883C275.467 241.796 275.107 241.694 274.779 241.575C274.456 241.452 274.178 241.304 273.945 241.131C273.713 240.958 273.533 240.753 273.405 240.516C273.278 240.279 273.214 240.005 273.214 239.695C273.214 239.395 273.28 239.11 273.412 238.841C273.544 238.572 273.733 238.335 273.979 238.13C274.226 237.925 274.524 237.763 274.875 237.645C275.23 237.526 275.627 237.467 276.064 237.467C276.684 237.467 277.215 237.572 277.657 237.781C278.104 237.986 278.446 238.267 278.683 238.622C278.92 238.973 279.038 239.369 279.038 239.812H277.391C277.391 239.616 277.34 239.433 277.24 239.265C277.145 239.091 276.999 238.952 276.803 238.848C276.607 238.738 276.361 238.684 276.064 238.684C275.782 238.684 275.547 238.729 275.36 238.82C275.178 238.907 275.041 239.021 274.95 239.162C274.864 239.303 274.82 239.458 274.82 239.627C274.82 239.75 274.843 239.862 274.889 239.962C274.939 240.058 275.021 240.146 275.135 240.229C275.249 240.306 275.404 240.379 275.6 240.447C275.8 240.516 276.051 240.582 276.352 240.646C276.917 240.764 277.402 240.917 277.808 241.104C278.218 241.286 278.532 241.523 278.751 241.814C278.97 242.102 279.079 242.466 279.079 242.908C279.079 243.236 279.008 243.537 278.867 243.811C278.73 244.079 278.53 244.314 278.266 244.515C278.001 244.711 277.685 244.863 277.315 244.973C276.951 245.082 276.541 245.137 276.085 245.137C275.415 245.137 274.848 245.018 274.383 244.781C273.918 244.54 273.565 244.232 273.323 243.858C273.086 243.48 272.968 243.088 272.968 242.683H274.561C274.579 242.988 274.663 243.232 274.813 243.414C274.968 243.592 275.16 243.722 275.388 243.804C275.62 243.881 275.859 243.92 276.105 243.92C276.402 243.92 276.65 243.881 276.851 243.804C277.051 243.722 277.204 243.612 277.309 243.476C277.413 243.334 277.466 243.175 277.466 242.997ZM283.543 243.824C283.812 243.824 284.053 243.772 284.268 243.667C284.486 243.558 284.662 243.407 284.794 243.216C284.931 243.024 285.006 242.803 285.02 242.553H286.571C286.562 243.031 286.421 243.466 286.147 243.858C285.874 244.25 285.512 244.562 285.061 244.795C284.609 245.023 284.11 245.137 283.563 245.137C282.998 245.137 282.506 245.041 282.087 244.85C281.668 244.654 281.319 244.385 281.041 244.043C280.763 243.701 280.553 243.307 280.412 242.86C280.275 242.414 280.207 241.935 280.207 241.425V241.186C280.207 240.675 280.275 240.197 280.412 239.75C280.553 239.299 280.763 238.902 281.041 238.561C281.319 238.219 281.668 237.952 282.087 237.761C282.506 237.565 282.996 237.467 283.557 237.467C284.149 237.467 284.669 237.585 285.115 237.822C285.562 238.055 285.913 238.381 286.168 238.8C286.428 239.215 286.562 239.698 286.571 240.249H285.02C285.006 239.976 284.938 239.729 284.814 239.511C284.696 239.287 284.527 239.11 284.309 238.978C284.094 238.845 283.837 238.779 283.536 238.779C283.203 238.779 282.928 238.848 282.709 238.984C282.49 239.117 282.319 239.299 282.196 239.531C282.073 239.759 281.984 240.017 281.93 240.304C281.88 240.586 281.854 240.88 281.854 241.186V241.425C281.854 241.73 281.88 242.026 281.93 242.313C281.98 242.601 282.066 242.858 282.189 243.086C282.317 243.309 282.49 243.489 282.709 243.626C282.928 243.758 283.206 243.824 283.543 243.824Z" fill="black"/>
<path opacity="0.5" d="M471.234 235.469H474.059C474.699 235.469 475.24 235.566 475.682 235.762C476.127 235.957 476.465 236.246 476.695 236.629C476.93 237.008 477.047 237.475 477.047 238.029C477.047 238.42 476.967 238.777 476.807 239.102C476.65 239.422 476.424 239.695 476.127 239.922C475.834 240.145 475.482 240.311 475.072 240.42L474.756 240.543H472.102L472.09 239.623H474.094C474.5 239.623 474.838 239.553 475.107 239.412C475.377 239.268 475.58 239.074 475.717 238.832C475.854 238.59 475.922 238.322 475.922 238.029C475.922 237.701 475.857 237.414 475.729 237.168C475.6 236.922 475.396 236.732 475.119 236.6C474.846 236.463 474.492 236.395 474.059 236.395H472.365V244H471.234V235.469ZM476.221 244L474.146 240.133L475.324 240.127L477.428 243.93V244H476.221ZM484.049 243.08V244H479.531V243.08H484.049ZM479.76 235.469V244H478.629V235.469H479.76ZM483.451 239.137V240.057H479.531V239.137H483.451ZM483.99 235.469V236.395H479.531V235.469H483.99ZM488.607 236.225L485.783 244H484.629L487.881 235.469H488.625L488.607 236.225ZM490.975 244L488.145 236.225L488.127 235.469H488.871L492.135 244H490.975ZM490.828 240.842V241.768H486.035V240.842H490.828ZM498.451 243.08V244H494.186V243.08H498.451ZM494.408 235.469V244H493.277V235.469H494.408Z" fill="black"/>
<path opacity="0.5" d="M322.539 212.051L322.434 215.057H321.42V213H320.582V212.051H322.539ZM315.174 213V204.469H316.311V212.08H320.512V204.469H321.643V213H315.174ZM326.383 213.117C325.941 213.117 325.541 213.043 325.182 212.895C324.826 212.742 324.52 212.529 324.262 212.256C324.008 211.982 323.812 211.658 323.676 211.283C323.539 210.908 323.471 210.498 323.471 210.053V209.807C323.471 209.291 323.547 208.832 323.699 208.43C323.852 208.023 324.059 207.68 324.32 207.398C324.582 207.117 324.879 206.904 325.211 206.76C325.543 206.615 325.887 206.543 326.242 206.543C326.695 206.543 327.086 206.621 327.414 206.777C327.746 206.934 328.018 207.152 328.229 207.434C328.439 207.711 328.596 208.039 328.697 208.418C328.799 208.793 328.85 209.203 328.85 209.648V210.135H324.115V209.25H327.766V209.168C327.75 208.887 327.691 208.613 327.59 208.348C327.492 208.082 327.336 207.863 327.121 207.691C326.906 207.52 326.613 207.434 326.242 207.434C325.996 207.434 325.77 207.486 325.562 207.592C325.355 207.693 325.178 207.846 325.029 208.049C324.881 208.252 324.766 208.5 324.684 208.793C324.602 209.086 324.561 209.424 324.561 209.807V210.053C324.561 210.354 324.602 210.637 324.684 210.902C324.77 211.164 324.893 211.395 325.053 211.594C325.217 211.793 325.414 211.949 325.645 212.062C325.879 212.176 326.145 212.232 326.441 212.232C326.824 212.232 327.148 212.154 327.414 211.998C327.68 211.842 327.912 211.633 328.111 211.371L328.768 211.893C328.631 212.1 328.457 212.297 328.246 212.484C328.035 212.672 327.775 212.824 327.467 212.941C327.162 213.059 326.801 213.117 326.383 213.117ZM334.416 209.408V210.287H331.064V209.408H334.416ZM331.293 206.66V213H330.209V206.66H331.293ZM335.295 206.66V213H334.205V206.66H335.295ZM340.779 211.916V208.652C340.779 208.402 340.729 208.186 340.627 208.002C340.529 207.814 340.381 207.67 340.182 207.568C339.982 207.467 339.736 207.416 339.443 207.416C339.17 207.416 338.93 207.463 338.723 207.557C338.52 207.65 338.359 207.773 338.242 207.926C338.129 208.078 338.072 208.242 338.072 208.418H336.988C336.988 208.191 337.047 207.967 337.164 207.744C337.281 207.521 337.449 207.32 337.668 207.141C337.891 206.957 338.156 206.812 338.465 206.707C338.777 206.598 339.125 206.543 339.508 206.543C339.969 206.543 340.375 206.621 340.727 206.777C341.082 206.934 341.359 207.17 341.559 207.486C341.762 207.799 341.863 208.191 341.863 208.664V211.617C341.863 211.828 341.881 212.053 341.916 212.291C341.955 212.529 342.012 212.734 342.086 212.906V213H340.955C340.9 212.875 340.857 212.709 340.826 212.502C340.795 212.291 340.779 212.096 340.779 211.916ZM340.967 209.156L340.979 209.918H339.883C339.574 209.918 339.299 209.943 339.057 209.994C338.814 210.041 338.611 210.113 338.447 210.211C338.283 210.309 338.158 210.432 338.072 210.58C337.986 210.725 337.943 210.895 337.943 211.09C337.943 211.289 337.988 211.471 338.078 211.635C338.168 211.799 338.303 211.93 338.482 212.027C338.666 212.121 338.891 212.168 339.156 212.168C339.488 212.168 339.781 212.098 340.035 211.957C340.289 211.816 340.49 211.645 340.639 211.441C340.791 211.238 340.873 211.041 340.885 210.85L341.348 211.371C341.32 211.535 341.246 211.717 341.125 211.916C341.004 212.115 340.842 212.307 340.639 212.49C340.439 212.67 340.201 212.82 339.924 212.941C339.65 213.059 339.342 213.117 338.998 213.117C338.568 213.117 338.191 213.033 337.867 212.865C337.547 212.697 337.297 212.473 337.117 212.191C336.941 211.906 336.854 211.588 336.854 211.236C336.854 210.896 336.92 210.598 337.053 210.34C337.186 210.078 337.377 209.861 337.627 209.689C337.877 209.514 338.178 209.381 338.529 209.291C338.881 209.201 339.273 209.156 339.707 209.156H340.967ZM349.521 210.211H347.441L347.43 209.344H349.129C349.465 209.344 349.744 209.311 349.967 209.244C350.193 209.178 350.363 209.078 350.477 208.945C350.59 208.812 350.646 208.648 350.646 208.453C350.646 208.301 350.613 208.168 350.547 208.055C350.484 207.938 350.389 207.842 350.26 207.768C350.131 207.689 349.971 207.633 349.779 207.598C349.592 207.559 349.371 207.539 349.117 207.539H347.729V213H346.645V206.66H349.117C349.52 206.66 349.881 206.695 350.201 206.766C350.525 206.836 350.801 206.943 351.027 207.088C351.258 207.229 351.434 207.408 351.555 207.627C351.676 207.846 351.736 208.104 351.736 208.4C351.736 208.592 351.697 208.773 351.619 208.945C351.541 209.117 351.426 209.27 351.273 209.402C351.121 209.535 350.934 209.645 350.711 209.73C350.488 209.812 350.232 209.865 349.943 209.889L349.521 210.211ZM349.521 213H347.049L347.588 212.121H349.521C349.822 212.121 350.072 212.084 350.271 212.01C350.471 211.932 350.619 211.822 350.717 211.682C350.818 211.537 350.869 211.365 350.869 211.166C350.869 210.967 350.818 210.797 350.717 210.656C350.619 210.512 350.471 210.402 350.271 210.328C350.072 210.25 349.822 210.211 349.521 210.211H347.875L347.887 209.344H349.943L350.336 209.672C350.684 209.699 350.979 209.785 351.221 209.93C351.463 210.074 351.646 210.258 351.771 210.48C351.896 210.699 351.959 210.938 351.959 211.195C351.959 211.492 351.902 211.754 351.789 211.98C351.68 212.207 351.52 212.396 351.309 212.549C351.098 212.697 350.842 212.811 350.541 212.889C350.24 212.963 349.9 213 349.521 213ZM359.365 210.211H357.285L357.273 209.344H358.973C359.309 209.344 359.588 209.311 359.811 209.244C360.037 209.178 360.207 209.078 360.32 208.945C360.434 208.812 360.49 208.648 360.49 208.453C360.49 208.301 360.457 208.168 360.391 208.055C360.328 207.938 360.232 207.842 360.104 207.768C359.975 207.689 359.814 207.633 359.623 207.598C359.436 207.559 359.215 207.539 358.961 207.539H357.572V213H356.488V206.66H358.961C359.363 206.66 359.725 206.695 360.045 206.766C360.369 206.836 360.645 206.943 360.871 207.088C361.102 207.229 361.277 207.408 361.398 207.627C361.52 207.846 361.58 208.104 361.58 208.4C361.58 208.592 361.541 208.773 361.463 208.945C361.385 209.117 361.27 209.27 361.117 209.402C360.965 209.535 360.777 209.645 360.555 209.73C360.332 209.812 360.076 209.865 359.787 209.889L359.365 210.211ZM359.365 213H356.893L357.432 212.121H359.365C359.666 212.121 359.916 212.084 360.115 212.01C360.314 211.932 360.463 211.822 360.561 211.682C360.662 211.537 360.713 211.365 360.713 211.166C360.713 210.967 360.662 210.797 360.561 210.656C360.463 210.512 360.314 210.402 360.115 210.328C359.916 210.25 359.666 210.211 359.365 210.211H357.719L357.73 209.344H359.787L360.18 209.672C360.527 209.699 360.822 209.785 361.064 209.93C361.307 210.074 361.49 210.258 361.615 210.48C361.74 210.699 361.803 210.938 361.803 211.195C361.803 211.492 361.746 211.754 361.633 211.98C361.523 212.207 361.363 212.396 361.152 212.549C360.941 212.697 360.686 212.811 360.385 212.889C360.084 212.963 359.744 213 359.365 213ZM364.146 208.84H366.051C366.562 208.84 366.994 208.93 367.346 209.109C367.697 209.285 367.963 209.529 368.143 209.842C368.326 210.15 368.418 210.502 368.418 210.896C368.418 211.189 368.367 211.465 368.266 211.723C368.164 211.977 368.012 212.199 367.809 212.391C367.609 212.582 367.361 212.732 367.064 212.842C366.771 212.947 366.434 213 366.051 213H363.355V206.66H364.439V212.109H366.051C366.363 212.109 366.613 212.053 366.801 211.939C366.988 211.826 367.123 211.68 367.205 211.5C367.287 211.32 367.328 211.133 367.328 210.938C367.328 210.746 367.287 210.559 367.205 210.375C367.123 210.191 366.988 210.039 366.801 209.918C366.613 209.793 366.363 209.73 366.051 209.73H364.146V208.84ZM370.674 206.66V213H369.59V206.66H370.674ZM373.305 206.66L374.693 208.969L376.1 206.66H377.371L375.297 209.789L377.436 213H376.182L374.717 210.621L373.252 213H371.992L374.125 209.789L372.057 206.66H373.305ZM378.121 209.9V209.766C378.121 209.309 378.188 208.885 378.32 208.494C378.453 208.1 378.645 207.758 378.895 207.469C379.145 207.176 379.447 206.949 379.803 206.789C380.158 206.625 380.557 206.543 380.998 206.543C381.443 206.543 381.844 206.625 382.199 206.789C382.559 206.949 382.863 207.176 383.113 207.469C383.367 207.758 383.561 208.1 383.693 208.494C383.826 208.885 383.893 209.309 383.893 209.766V209.9C383.893 210.357 383.826 210.781 383.693 211.172C383.561 211.562 383.367 211.904 383.113 212.197C382.863 212.486 382.561 212.713 382.205 212.877C381.854 213.037 381.455 213.117 381.01 213.117C380.564 213.117 380.164 213.037 379.809 212.877C379.453 212.713 379.148 212.486 378.895 212.197C378.645 211.904 378.453 211.562 378.32 211.172C378.188 210.781 378.121 210.357 378.121 209.9ZM379.205 209.766V209.9C379.205 210.217 379.242 210.516 379.316 210.797C379.391 211.074 379.502 211.32 379.65 211.535C379.803 211.75 379.992 211.92 380.219 212.045C380.445 212.166 380.709 212.227 381.01 212.227C381.307 212.227 381.566 212.166 381.789 212.045C382.016 211.92 382.203 211.75 382.352 211.535C382.5 211.32 382.611 211.074 382.686 210.797C382.764 210.516 382.803 210.217 382.803 209.9V209.766C382.803 209.453 382.764 209.158 382.686 208.881C382.611 208.6 382.498 208.352 382.346 208.137C382.197 207.918 382.01 207.746 381.783 207.621C381.561 207.496 381.299 207.434 380.998 207.434C380.701 207.434 380.439 207.496 380.213 207.621C379.99 207.746 379.803 207.918 379.65 208.137C379.502 208.352 379.391 208.6 379.316 208.881C379.242 209.158 379.205 209.453 379.205 209.766ZM385.973 206.66H387.057L386.963 209.033C386.939 209.635 386.871 210.154 386.758 210.592C386.645 211.029 386.5 211.402 386.324 211.711C386.148 212.016 385.951 212.271 385.732 212.479C385.518 212.686 385.295 212.859 385.064 213H384.525L384.555 212.115L384.777 212.109C384.906 211.957 385.031 211.801 385.152 211.641C385.273 211.477 385.385 211.283 385.486 211.061C385.588 210.834 385.672 210.559 385.738 210.234C385.809 209.906 385.854 209.506 385.873 209.033L385.973 206.66ZM386.242 206.66H390.057V213H388.973V207.662H386.242V206.66ZM384.279 212.109H390.871V214.869H389.787V213H385.363V214.869H384.273L384.279 212.109ZM396.373 209.408V210.287H393.021V209.408H396.373ZM393.25 206.66V213H392.166V206.66H393.25ZM397.252 206.66V213H396.162V206.66H397.252ZM399.889 208.84H401.793C402.305 208.84 402.736 208.93 403.088 209.109C403.439 209.285 403.705 209.529 403.885 209.842C404.068 210.15 404.16 210.502 404.16 210.896C404.16 211.189 404.109 211.465 404.008 211.723C403.906 211.977 403.754 212.199 403.551 212.391C403.352 212.582 403.104 212.732 402.807 212.842C402.514 212.947 402.176 213 401.793 213H399.098V206.66H400.182V212.109H401.793C402.105 212.109 402.355 212.053 402.543 211.939C402.73 211.826 402.865 211.68 402.947 211.5C403.029 211.32 403.07 211.133 403.07 210.938C403.07 210.746 403.029 210.559 402.947 210.375C402.865 210.191 402.73 210.039 402.543 209.918C402.355 209.793 402.105 209.73 401.793 209.73H399.889V208.84ZM406.416 206.66V213H405.332V206.66H406.416ZM410.945 213.117C410.504 213.117 410.104 213.043 409.744 212.895C409.389 212.742 409.082 212.529 408.824 212.256C408.57 211.982 408.375 211.658 408.238 211.283C408.102 210.908 408.033 210.498 408.033 210.053V209.807C408.033 209.291 408.109 208.832 408.262 208.43C408.414 208.023 408.621 207.68 408.883 207.398C409.145 207.117 409.441 206.904 409.773 206.76C410.105 206.615 410.449 206.543 410.805 206.543C411.258 206.543 411.648 206.621 411.977 206.777C412.309 206.934 412.58 207.152 412.791 207.434C413.002 207.711 413.158 208.039 413.26 208.418C413.361 208.793 413.412 209.203 413.412 209.648V210.135H408.678V209.25H412.328V209.168C412.312 208.887 412.254 208.613 412.152 208.348C412.055 208.082 411.898 207.863 411.684 207.691C411.469 207.52 411.176 207.434 410.805 207.434C410.559 207.434 410.332 207.486 410.125 207.592C409.918 207.693 409.74 207.846 409.592 208.049C409.443 208.252 409.328 208.5 409.246 208.793C409.164 209.086 409.123 209.424 409.123 209.807V210.053C409.123 210.354 409.164 210.637 409.246 210.902C409.332 211.164 409.455 211.395 409.615 211.594C409.779 211.793 409.977 211.949 410.207 212.062C410.441 212.176 410.707 212.232 411.004 212.232C411.387 212.232 411.711 212.154 411.977 211.998C412.242 211.842 412.475 211.633 412.674 211.371L413.33 211.893C413.193 212.1 413.02 212.297 412.809 212.484C412.598 212.672 412.338 212.824 412.029 212.941C411.725 213.059 411.363 213.117 410.945 213.117Z" fill="black"/>
<path opacity="0.5" d="M300.393 242.287H301.518C301.459 242.826 301.305 243.309 301.055 243.734C300.805 244.16 300.451 244.498 299.994 244.748C299.537 244.994 298.967 245.117 298.283 245.117C297.783 245.117 297.328 245.023 296.918 244.836C296.512 244.648 296.162 244.383 295.869 244.039C295.576 243.691 295.35 243.275 295.189 242.791C295.033 242.303 294.955 241.76 294.955 241.162V240.312C294.955 239.715 295.033 239.174 295.189 238.689C295.35 238.201 295.578 237.783 295.875 237.436C296.176 237.088 296.537 236.82 296.959 236.633C297.381 236.445 297.855 236.352 298.383 236.352C299.027 236.352 299.572 236.473 300.018 236.715C300.463 236.957 300.809 237.293 301.055 237.723C301.305 238.148 301.459 238.643 301.518 239.205H300.393C300.338 238.807 300.236 238.465 300.088 238.18C299.939 237.891 299.729 237.668 299.455 237.512C299.182 237.355 298.824 237.277 298.383 237.277C298.004 237.277 297.67 237.35 297.381 237.494C297.096 237.639 296.855 237.844 296.66 238.109C296.469 238.375 296.324 238.693 296.227 239.064C296.129 239.436 296.08 239.848 296.08 240.301V241.162C296.08 241.58 296.123 241.973 296.209 242.34C296.299 242.707 296.434 243.029 296.613 243.307C296.793 243.584 297.021 243.803 297.299 243.963C297.576 244.119 297.904 244.197 298.283 244.197C298.764 244.197 299.146 244.121 299.432 243.969C299.717 243.816 299.932 243.598 300.076 243.312C300.225 243.027 300.33 242.686 300.393 242.287ZM304.072 238.66V245H302.988V238.66H304.072ZM308.232 238.66L305.227 242.293H303.709L303.545 241.344H304.787L306.914 238.66H308.232ZM307.066 245L304.734 242.129L305.432 241.344L308.443 245H307.066ZM310.559 243.283L313.482 238.66H314.572V245H313.482V240.377L310.559 245H309.48V238.66H310.559V243.283ZM317.455 238.66H318.539L318.445 241.033C318.422 241.635 318.354 242.154 318.24 242.592C318.127 243.029 317.982 243.402 317.807 243.711C317.631 244.016 317.434 244.271 317.215 244.479C317 244.686 316.777 244.859 316.547 245H316.008L316.037 244.115L316.26 244.109C316.389 243.957 316.514 243.801 316.635 243.641C316.756 243.477 316.867 243.283 316.969 243.061C317.07 242.834 317.154 242.559 317.221 242.234C317.291 241.906 317.336 241.506 317.355 241.033L317.455 238.66ZM317.725 238.66H321.539V245H320.455V239.662H317.725V238.66ZM315.762 244.109H322.354V246.869H321.27V245H316.846V246.869H315.756L315.762 244.109ZM324.732 238.66V245H323.648V238.66H324.732ZM328.893 238.66L325.887 242.293H324.369L324.205 241.344H325.447L327.574 238.66H328.893ZM327.727 245L325.395 242.129L326.092 241.344L329.104 245H327.727ZM333.785 243.916V240.652C333.785 240.402 333.734 240.186 333.633 240.002C333.535 239.814 333.387 239.67 333.188 239.568C332.988 239.467 332.742 239.416 332.449 239.416C332.176 239.416 331.936 239.463 331.729 239.557C331.525 239.65 331.365 239.773 331.248 239.926C331.135 240.078 331.078 240.242 331.078 240.418H329.994C329.994 240.191 330.053 239.967 330.17 239.744C330.287 239.521 330.455 239.32 330.674 239.141C330.896 238.957 331.162 238.812 331.471 238.707C331.783 238.598 332.131 238.543 332.514 238.543C332.975 238.543 333.381 238.621 333.732 238.777C334.088 238.934 334.365 239.17 334.564 239.486C334.768 239.799 334.869 240.191 334.869 240.664V243.617C334.869 243.828 334.887 244.053 334.922 244.291C334.961 244.529 335.018 244.734 335.092 244.906V245H333.961C333.906 244.875 333.863 244.709 333.832 244.502C333.801 244.291 333.785 244.096 333.785 243.916ZM333.973 241.156L333.984 241.918H332.889C332.58 241.918 332.305 241.943 332.062 241.994C331.82 242.041 331.617 242.113 331.453 242.211C331.289 242.309 331.164 242.432 331.078 242.58C330.992 242.725 330.949 242.895 330.949 243.09C330.949 243.289 330.994 243.471 331.084 243.635C331.174 243.799 331.309 243.93 331.488 244.027C331.672 244.121 331.896 244.168 332.162 244.168C332.494 244.168 332.787 244.098 333.041 243.957C333.295 243.816 333.496 243.645 333.645 243.441C333.797 243.238 333.879 243.041 333.891 242.85L334.354 243.371C334.326 243.535 334.252 243.717 334.131 243.916C334.01 244.115 333.848 244.307 333.645 244.49C333.445 244.67 333.207 244.82 332.93 244.941C332.656 245.059 332.348 245.117 332.004 245.117C331.574 245.117 331.197 245.033 330.873 244.865C330.553 244.697 330.303 244.473 330.123 244.191C329.947 243.906 329.859 243.588 329.859 243.236C329.859 242.896 329.926 242.598 330.059 242.34C330.191 242.078 330.383 241.861 330.633 241.689C330.883 241.514 331.184 241.381 331.535 241.291C331.887 241.201 332.279 241.156 332.713 241.156H333.973Z" fill="black"/>
<path opacity="0.5" d="M323.637 179.051L323.531 182.057H322.518V180H321.68V179.051H323.637ZM316.271 180V171.469H317.408V179.08H321.609V171.469H322.74V180H316.271ZM327.48 180.117C327.039 180.117 326.639 180.043 326.279 179.895C325.924 179.742 325.617 179.529 325.359 179.256C325.105 178.982 324.91 178.658 324.773 178.283C324.637 177.908 324.568 177.498 324.568 177.053V176.807C324.568 176.291 324.645 175.832 324.797 175.43C324.949 175.023 325.156 174.68 325.418 174.398C325.68 174.117 325.977 173.904 326.309 173.76C326.641 173.615 326.984 173.543 327.34 173.543C327.793 173.543 328.184 173.621 328.512 173.777C328.844 173.934 329.115 174.152 329.326 174.434C329.537 174.711 329.693 175.039 329.795 175.418C329.896 175.793 329.947 176.203 329.947 176.648V177.135H325.213V176.25H328.863V176.168C328.848 175.887 328.789 175.613 328.688 175.348C328.59 175.082 328.434 174.863 328.219 174.691C328.004 174.52 327.711 174.434 327.34 174.434C327.094 174.434 326.867 174.486 326.66 174.592C326.453 174.693 326.275 174.846 326.127 175.049C325.979 175.252 325.863 175.5 325.781 175.793C325.699 176.086 325.658 176.424 325.658 176.807V177.053C325.658 177.354 325.699 177.637 325.781 177.902C325.867 178.164 325.99 178.395 326.15 178.594C326.314 178.793 326.512 178.949 326.742 179.062C326.977 179.176 327.242 179.232 327.539 179.232C327.922 179.232 328.246 179.154 328.512 178.998C328.777 178.842 329.01 178.633 329.209 178.371L329.865 178.893C329.729 179.1 329.555 179.297 329.344 179.484C329.133 179.672 328.873 179.824 328.564 179.941C328.26 180.059 327.898 180.117 327.48 180.117ZM335.514 176.408V177.287H332.162V176.408H335.514ZM332.391 173.66V180H331.307V173.66H332.391ZM336.393 173.66V180H335.303V173.66H336.393ZM341.877 178.916V175.652C341.877 175.402 341.826 175.186 341.725 175.002C341.627 174.814 341.479 174.67 341.279 174.568C341.08 174.467 340.834 174.416 340.541 174.416C340.268 174.416 340.027 174.463 339.82 174.557C339.617 174.65 339.457 174.773 339.34 174.926C339.227 175.078 339.17 175.242 339.17 175.418H338.086C338.086 175.191 338.145 174.967 338.262 174.744C338.379 174.521 338.547 174.32 338.766 174.141C338.988 173.957 339.254 173.812 339.562 173.707C339.875 173.598 340.223 173.543 340.605 173.543C341.066 173.543 341.473 173.621 341.824 173.777C342.18 173.934 342.457 174.17 342.656 174.486C342.859 174.799 342.961 175.191 342.961 175.664V178.617C342.961 178.828 342.979 179.053 343.014 179.291C343.053 179.529 343.109 179.734 343.184 179.906V180H342.053C341.998 179.875 341.955 179.709 341.924 179.502C341.893 179.291 341.877 179.096 341.877 178.916ZM342.064 176.156L342.076 176.918H340.98C340.672 176.918 340.396 176.943 340.154 176.994C339.912 177.041 339.709 177.113 339.545 177.211C339.381 177.309 339.256 177.432 339.17 177.58C339.084 177.725 339.041 177.895 339.041 178.09C339.041 178.289 339.086 178.471 339.176 178.635C339.266 178.799 339.4 178.93 339.58 179.027C339.764 179.121 339.988 179.168 340.254 179.168C340.586 179.168 340.879 179.098 341.133 178.957C341.387 178.816 341.588 178.645 341.736 178.441C341.889 178.238 341.971 178.041 341.982 177.85L342.445 178.371C342.418 178.535 342.344 178.717 342.223 178.916C342.102 179.115 341.939 179.307 341.736 179.49C341.537 179.67 341.299 179.82 341.021 179.941C340.748 180.059 340.439 180.117 340.096 180.117C339.666 180.117 339.289 180.033 338.965 179.865C338.645 179.697 338.395 179.473 338.215 179.191C338.039 178.906 337.951 178.588 337.951 178.236C337.951 177.896 338.018 177.598 338.15 177.34C338.283 177.078 338.475 176.861 338.725 176.689C338.975 176.514 339.275 176.381 339.627 176.291C339.979 176.201 340.371 176.156 340.805 176.156H342.064ZM350.619 177.211H348.539L348.527 176.344H350.227C350.562 176.344 350.842 176.311 351.064 176.244C351.291 176.178 351.461 176.078 351.574 175.945C351.688 175.812 351.744 175.648 351.744 175.453C351.744 175.301 351.711 175.168 351.645 175.055C351.582 174.938 351.486 174.842 351.357 174.768C351.229 174.689 351.068 174.633 350.877 174.598C350.689 174.559 350.469 174.539 350.215 174.539H348.826V180H347.742V173.66H350.215C350.617 173.66 350.979 173.695 351.299 173.766C351.623 173.836 351.898 173.943 352.125 174.088C352.355 174.229 352.531 174.408 352.652 174.627C352.773 174.846 352.834 175.104 352.834 175.4C352.834 175.592 352.795 175.773 352.717 175.945C352.639 176.117 352.523 176.27 352.371 176.402C352.219 176.535 352.031 176.645 351.809 176.73C351.586 176.812 351.33 176.865 351.041 176.889L350.619 177.211ZM350.619 180H348.146L348.686 179.121H350.619C350.92 179.121 351.17 179.084 351.369 179.01C351.568 178.932 351.717 178.822 351.814 178.682C351.916 178.537 351.967 178.365 351.967 178.166C351.967 177.967 351.916 177.797 351.814 177.656C351.717 177.512 351.568 177.402 351.369 177.328C351.17 177.25 350.92 177.211 350.619 177.211H348.973L348.984 176.344H351.041L351.434 176.672C351.781 176.699 352.076 176.785 352.318 176.93C352.561 177.074 352.744 177.258 352.869 177.48C352.994 177.699 353.057 177.938 353.057 178.195C353.057 178.492 353 178.754 352.887 178.98C352.777 179.207 352.617 179.396 352.406 179.549C352.195 179.697 351.939 179.811 351.639 179.889C351.338 179.963 350.998 180 350.619 180ZM361.553 170.9H362.443C362.443 171.283 362.385 171.588 362.268 171.814C362.15 172.037 361.99 172.209 361.787 172.33C361.588 172.451 361.361 172.543 361.107 172.605C360.857 172.668 360.598 172.729 360.328 172.787C359.992 172.857 359.68 172.969 359.391 173.121C359.105 173.27 358.859 173.48 358.652 173.754C358.449 174.027 358.299 174.383 358.201 174.82C358.107 175.258 358.082 175.799 358.125 176.443V176.982H357.234V176.443C357.234 175.721 357.303 175.09 357.439 174.551C357.58 174.012 357.777 173.557 358.031 173.186C358.285 172.814 358.586 172.52 358.934 172.301C359.285 172.082 359.672 171.932 360.094 171.85C360.398 171.791 360.66 171.729 360.879 171.662C361.098 171.592 361.264 171.498 361.377 171.381C361.494 171.264 361.553 171.104 361.553 170.9ZM360.27 174.023C360.684 174.023 361.053 174.096 361.377 174.24C361.701 174.385 361.977 174.586 362.203 174.844C362.43 175.102 362.602 175.406 362.719 175.758C362.84 176.105 362.9 176.484 362.9 176.895V177.023C362.9 177.465 362.836 177.875 362.707 178.254C362.582 178.629 362.396 178.957 362.15 179.238C361.908 179.516 361.611 179.732 361.26 179.889C360.912 180.045 360.516 180.123 360.07 180.123C359.625 180.123 359.227 180.045 358.875 179.889C358.527 179.732 358.23 179.516 357.984 179.238C357.738 178.957 357.551 178.629 357.422 178.254C357.297 177.875 357.234 177.465 357.234 177.023V176.895C357.234 176.797 357.252 176.701 357.287 176.607C357.322 176.514 357.365 176.418 357.416 176.32C357.471 176.223 357.52 176.119 357.562 176.01C357.707 175.658 357.904 175.332 358.154 175.031C358.408 174.73 358.711 174.488 359.062 174.305C359.418 174.117 359.82 174.023 360.27 174.023ZM360.059 174.908C359.66 174.908 359.332 175 359.074 175.184C358.82 175.367 358.631 175.611 358.506 175.916C358.381 176.217 358.318 176.543 358.318 176.895V177.023C358.318 177.32 358.354 177.602 358.424 177.867C358.494 178.133 358.6 178.369 358.74 178.576C358.885 178.779 359.066 178.939 359.285 179.057C359.508 179.174 359.77 179.232 360.07 179.232C360.371 179.232 360.631 179.174 360.85 179.057C361.068 178.939 361.248 178.779 361.389 178.576C361.529 178.369 361.635 178.133 361.705 177.867C361.775 177.602 361.811 177.32 361.811 177.023V176.895C361.811 176.629 361.775 176.377 361.705 176.139C361.635 175.9 361.527 175.689 361.383 175.506C361.242 175.322 361.061 175.178 360.838 175.072C360.619 174.963 360.359 174.908 360.059 174.908ZM365.912 179.344L367.676 173.66H368.836L366.293 180.979C366.234 181.135 366.156 181.303 366.059 181.482C365.965 181.666 365.844 181.84 365.695 182.004C365.547 182.168 365.367 182.301 365.156 182.402C364.949 182.508 364.701 182.561 364.412 182.561C364.326 182.561 364.217 182.549 364.084 182.525C363.951 182.502 363.857 182.482 363.803 182.467L363.797 181.588C363.828 181.592 363.877 181.596 363.943 181.6C364.014 181.607 364.062 181.611 364.09 181.611C364.336 181.611 364.545 181.578 364.717 181.512C364.889 181.449 365.033 181.342 365.15 181.189C365.271 181.041 365.375 180.836 365.461 180.574L365.912 179.344ZM364.617 173.66L366.264 178.582L366.545 179.725L365.766 180.123L363.434 173.66H364.617ZM370.629 173.66H371.713L371.619 176.033C371.596 176.635 371.527 177.154 371.414 177.592C371.301 178.029 371.156 178.402 370.98 178.711C370.805 179.016 370.607 179.271 370.389 179.479C370.174 179.686 369.951 179.859 369.721 180H369.182L369.211 179.115L369.434 179.109C369.562 178.957 369.688 178.801 369.809 178.641C369.93 178.477 370.041 178.283 370.143 178.061C370.244 177.834 370.328 177.559 370.395 177.234C370.465 176.906 370.51 176.506 370.529 176.033L370.629 173.66ZM370.898 173.66H374.713V180H373.629V174.662H370.898V173.66ZM368.936 179.109H375.527V181.869H374.443V180H370.02V181.869H368.93L368.936 179.109ZM381.029 176.408V177.287H377.678V176.408H381.029ZM377.906 173.66V180H376.822V173.66H377.906ZM381.908 173.66V180H380.818V173.66H381.908ZM384.826 178.283L387.75 173.66H388.84V180H387.75V175.377L384.826 180H383.748V173.66H384.826V178.283Z" fill="black"/>
<path opacity="0.5" d="M310.664 144.137V145.057H306.047V144.137H310.664ZM306.223 140.469V149H305.092V140.469H306.223ZM311.648 140.469V149H310.523V140.469H311.648ZM317.232 147.916V144.652C317.232 144.402 317.182 144.186 317.08 144.002C316.982 143.814 316.834 143.67 316.635 143.568C316.436 143.467 316.189 143.416 315.896 143.416C315.623 143.416 315.383 143.463 315.176 143.557C314.973 143.65 314.812 143.773 314.695 143.926C314.582 144.078 314.525 144.242 314.525 144.418H313.441C313.441 144.191 313.5 143.967 313.617 143.744C313.734 143.521 313.902 143.32 314.121 143.141C314.344 142.957 314.609 142.812 314.918 142.707C315.23 142.598 315.578 142.543 315.961 142.543C316.422 142.543 316.828 142.621 317.18 142.777C317.535 142.934 317.812 143.17 318.012 143.486C318.215 143.799 318.316 144.191 318.316 144.664V147.617C318.316 147.828 318.334 148.053 318.369 148.291C318.408 148.529 318.465 148.734 318.539 148.906V149H317.408C317.354 148.875 317.311 148.709 317.279 148.502C317.248 148.291 317.232 148.096 317.232 147.916ZM317.42 145.156L317.432 145.918H316.336C316.027 145.918 315.752 145.943 315.51 145.994C315.268 146.041 315.064 146.113 314.9 146.211C314.736 146.309 314.611 146.432 314.525 146.58C314.439 146.725 314.396 146.895 314.396 147.09C314.396 147.289 314.441 147.471 314.531 147.635C314.621 147.799 314.756 147.93 314.936 148.027C315.119 148.121 315.344 148.168 315.609 148.168C315.941 148.168 316.234 148.098 316.488 147.957C316.742 147.816 316.943 147.645 317.092 147.441C317.244 147.238 317.326 147.041 317.338 146.85L317.801 147.371C317.773 147.535 317.699 147.717 317.578 147.916C317.457 148.115 317.295 148.307 317.092 148.49C316.893 148.67 316.654 148.82 316.377 148.941C316.104 149.059 315.795 149.117 315.451 149.117C315.021 149.117 314.645 149.033 314.32 148.865C314 148.697 313.75 148.473 313.57 148.191C313.395 147.906 313.307 147.588 313.307 147.236C313.307 146.896 313.373 146.598 313.506 146.34C313.639 146.078 313.83 145.861 314.08 145.689C314.33 145.514 314.631 145.381 314.982 145.291C315.334 145.201 315.727 145.156 316.16 145.156H317.42ZM322.389 145.971H321.223V145.303H322.301C322.602 145.303 322.84 145.266 323.016 145.191C323.191 145.113 323.316 145.006 323.391 144.869C323.465 144.732 323.502 144.572 323.502 144.389C323.502 144.225 323.459 144.07 323.373 143.926C323.291 143.777 323.158 143.658 322.975 143.568C322.791 143.475 322.545 143.428 322.236 143.428C321.986 143.428 321.76 143.473 321.557 143.562C321.354 143.648 321.191 143.768 321.07 143.92C320.953 144.068 320.895 144.236 320.895 144.424H319.811C319.811 144.037 319.92 143.705 320.139 143.428C320.361 143.146 320.656 142.93 321.023 142.777C321.395 142.625 321.799 142.549 322.236 142.549C322.604 142.549 322.932 142.59 323.221 142.672C323.514 142.75 323.762 142.867 323.965 143.023C324.168 143.176 324.322 143.367 324.428 143.598C324.537 143.824 324.592 144.088 324.592 144.389C324.592 144.604 324.541 144.807 324.439 144.998C324.338 145.189 324.191 145.359 324 145.508C323.809 145.652 323.576 145.766 323.303 145.848C323.033 145.93 322.729 145.971 322.389 145.971ZM321.223 145.561H322.389C322.768 145.561 323.102 145.598 323.391 145.672C323.68 145.742 323.922 145.848 324.117 145.988C324.312 146.129 324.459 146.303 324.557 146.51C324.658 146.713 324.709 146.947 324.709 147.213C324.709 147.51 324.648 147.777 324.527 148.016C324.41 148.25 324.242 148.449 324.023 148.613C323.805 148.777 323.543 148.902 323.238 148.988C322.938 149.074 322.604 149.117 322.236 149.117C321.826 149.117 321.428 149.047 321.041 148.906C320.654 148.766 320.336 148.549 320.086 148.256C319.836 147.959 319.711 147.582 319.711 147.125H320.795C320.795 147.316 320.855 147.498 320.977 147.67C321.098 147.842 321.266 147.98 321.48 148.086C321.699 148.191 321.951 148.244 322.236 148.244C322.541 148.244 322.795 148.197 322.998 148.104C323.201 148.01 323.354 147.885 323.455 147.729C323.561 147.572 323.613 147.402 323.613 147.219C323.613 146.98 323.566 146.789 323.473 146.645C323.379 146.5 323.234 146.395 323.039 146.328C322.848 146.258 322.602 146.223 322.301 146.223H321.223V145.561ZM329.092 146.211H327.012L327 145.344H328.699C329.035 145.344 329.314 145.311 329.537 145.244C329.764 145.178 329.934 145.078 330.047 144.945C330.16 144.812 330.217 144.648 330.217 144.453C330.217 144.301 330.184 144.168 330.117 144.055C330.055 143.938 329.959 143.842 329.83 143.768C329.701 143.689 329.541 143.633 329.35 143.598C329.162 143.559 328.941 143.539 328.688 143.539H327.299V149H326.215V142.66H328.688C329.09 142.66 329.451 142.695 329.771 142.766C330.096 142.836 330.371 142.943 330.598 143.088C330.828 143.229 331.004 143.408 331.125 143.627C331.246 143.846 331.307 144.104 331.307 144.4C331.307 144.592 331.268 144.773 331.189 144.945C331.111 145.117 330.996 145.27 330.844 145.402C330.691 145.535 330.504 145.645 330.281 145.73C330.059 145.812 329.803 145.865 329.514 145.889L329.092 146.211ZM329.092 149H326.619L327.158 148.121H329.092C329.393 148.121 329.643 148.084 329.842 148.01C330.041 147.932 330.189 147.822 330.287 147.682C330.389 147.537 330.439 147.365 330.439 147.166C330.439 146.967 330.389 146.797 330.287 146.656C330.189 146.512 330.041 146.402 329.842 146.328C329.643 146.25 329.393 146.211 329.092 146.211H327.445L327.457 145.344H329.514L329.906 145.672C330.254 145.699 330.549 145.785 330.791 145.93C331.033 146.074 331.217 146.258 331.342 146.48C331.467 146.699 331.529 146.938 331.529 147.195C331.529 147.492 331.473 147.754 331.359 147.98C331.25 148.207 331.09 148.396 330.879 148.549C330.668 148.697 330.412 148.811 330.111 148.889C329.811 148.963 329.471 149 329.092 149ZM336.721 147.916V144.652C336.721 144.402 336.67 144.186 336.568 144.002C336.471 143.814 336.322 143.67 336.123 143.568C335.924 143.467 335.678 143.416 335.385 143.416C335.111 143.416 334.871 143.463 334.664 143.557C334.461 143.65 334.301 143.773 334.184 143.926C334.07 144.078 334.014 144.242 334.014 144.418H332.93C332.93 144.191 332.988 143.967 333.105 143.744C333.223 143.521 333.391 143.32 333.609 143.141C333.832 142.957 334.098 142.812 334.406 142.707C334.719 142.598 335.066 142.543 335.449 142.543C335.91 142.543 336.316 142.621 336.668 142.777C337.023 142.934 337.301 143.17 337.5 143.486C337.703 143.799 337.805 144.191 337.805 144.664V147.617C337.805 147.828 337.822 148.053 337.857 148.291C337.896 148.529 337.953 148.734 338.027 148.906V149H336.896C336.842 148.875 336.799 148.709 336.768 148.502C336.736 148.291 336.721 148.096 336.721 147.916ZM336.908 145.156L336.92 145.918H335.824C335.516 145.918 335.24 145.943 334.998 145.994C334.756 146.041 334.553 146.113 334.389 146.211C334.225 146.309 334.1 146.432 334.014 146.58C333.928 146.725 333.885 146.895 333.885 147.09C333.885 147.289 333.93 147.471 334.02 147.635C334.109 147.799 334.244 147.93 334.424 148.027C334.607 148.121 334.832 148.168 335.098 148.168C335.43 148.168 335.723 148.098 335.977 147.957C336.23 147.816 336.432 147.645 336.58 147.441C336.732 147.238 336.814 147.041 336.826 146.85L337.289 147.371C337.262 147.535 337.188 147.717 337.066 147.916C336.945 148.115 336.783 148.307 336.58 148.49C336.381 148.67 336.143 148.82 335.865 148.941C335.592 149.059 335.283 149.117 334.939 149.117C334.51 149.117 334.133 149.033 333.809 148.865C333.488 148.697 333.238 148.473 333.059 148.191C332.883 147.906 332.795 147.588 332.795 147.236C332.795 146.896 332.861 146.598 332.994 146.34C333.127 146.078 333.318 145.861 333.568 145.689C333.818 145.514 334.119 145.381 334.471 145.291C334.822 145.201 335.215 145.156 335.648 145.156H336.908ZM343.811 145.408V146.287H340.459V145.408H343.811ZM340.688 142.66V149H339.604V142.66H340.688ZM344.689 142.66V149H343.6V142.66H344.689ZM347.607 147.283L350.531 142.66H351.621V149H350.531V144.377L347.607 149H346.529V142.66H347.607V147.283ZM355.992 149.117C355.551 149.117 355.15 149.043 354.791 148.895C354.436 148.742 354.129 148.529 353.871 148.256C353.617 147.982 353.422 147.658 353.285 147.283C353.148 146.908 353.08 146.498 353.08 146.053V145.807C353.08 145.291 353.156 144.832 353.309 144.43C353.461 144.023 353.668 143.68 353.93 143.398C354.191 143.117 354.488 142.904 354.82 142.76C355.152 142.615 355.496 142.543 355.852 142.543C356.305 142.543 356.695 142.621 357.023 142.777C357.355 142.934 357.627 143.152 357.838 143.434C358.049 143.711 358.205 144.039 358.307 144.418C358.408 144.793 358.459 145.203 358.459 145.648V146.135H353.725V145.25H357.375V145.168C357.359 144.887 357.301 144.613 357.199 144.348C357.102 144.082 356.945 143.863 356.73 143.691C356.516 143.52 356.223 143.434 355.852 143.434C355.605 143.434 355.379 143.486 355.172 143.592C354.965 143.693 354.787 143.846 354.639 144.049C354.49 144.252 354.375 144.5 354.293 144.793C354.211 145.086 354.17 145.424 354.17 145.807V146.053C354.17 146.354 354.211 146.637 354.293 146.902C354.379 147.164 354.502 147.395 354.662 147.594C354.826 147.793 355.023 147.949 355.254 148.062C355.488 148.176 355.754 148.232 356.051 148.232C356.434 148.232 356.758 148.154 357.023 147.998C357.289 147.842 357.521 147.633 357.721 147.371L358.377 147.893C358.24 148.1 358.066 148.297 357.855 148.484C357.645 148.672 357.385 148.824 357.076 148.941C356.771 149.059 356.41 149.117 355.992 149.117Z" fill="black"/>
<path opacity="0.5" d="M298.309 115.043L302.51 108.469H303.641V117H302.51V110.42L298.309 117H297.184V108.469H298.309V115.043ZM306.711 110.66V117H305.627V110.66H306.711ZM310.871 110.66L307.865 114.293H306.348L306.184 113.344H307.426L309.553 110.66H310.871ZM309.705 117L307.373 114.129L308.07 113.344L311.082 117H309.705ZM311.609 113.9V113.766C311.609 113.309 311.676 112.885 311.809 112.494C311.941 112.1 312.133 111.758 312.383 111.469C312.633 111.176 312.936 110.949 313.291 110.789C313.646 110.625 314.045 110.543 314.486 110.543C314.932 110.543 315.332 110.625 315.688 110.789C316.047 110.949 316.352 111.176 316.602 111.469C316.855 111.758 317.049 112.1 317.182 112.494C317.314 112.885 317.381 113.309 317.381 113.766V113.9C317.381 114.357 317.314 114.781 317.182 115.172C317.049 115.562 316.855 115.904 316.602 116.197C316.352 116.486 316.049 116.713 315.693 116.877C315.342 117.037 314.943 117.117 314.498 117.117C314.053 117.117 313.652 117.037 313.297 116.877C312.941 116.713 312.637 116.486 312.383 116.197C312.133 115.904 311.941 115.562 311.809 115.172C311.676 114.781 311.609 114.357 311.609 113.9ZM312.693 113.766V113.9C312.693 114.217 312.73 114.516 312.805 114.797C312.879 115.074 312.99 115.32 313.139 115.535C313.291 115.75 313.48 115.92 313.707 116.045C313.934 116.166 314.197 116.227 314.498 116.227C314.795 116.227 315.055 116.166 315.277 116.045C315.504 115.92 315.691 115.75 315.84 115.535C315.988 115.32 316.1 115.074 316.174 114.797C316.252 114.516 316.291 114.217 316.291 113.9V113.766C316.291 113.453 316.252 113.158 316.174 112.881C316.1 112.6 315.986 112.352 315.834 112.137C315.686 111.918 315.498 111.746 315.271 111.621C315.049 111.496 314.787 111.434 314.486 111.434C314.189 111.434 313.928 111.496 313.701 111.621C313.479 111.746 313.291 111.918 313.139 112.137C312.99 112.352 312.879 112.6 312.805 112.881C312.73 113.158 312.693 113.453 312.693 113.766ZM323.041 113.408V114.287H319.689V113.408H323.041ZM319.918 110.66V117H318.834V110.66H319.918ZM323.92 110.66V117H322.83V110.66H323.92ZM326.844 110.66V117H325.76V110.66H326.844ZM331.004 110.66L327.998 114.293H326.48L326.316 113.344H327.559L329.686 110.66H331.004ZM329.838 117L327.506 114.129L328.203 113.344L331.215 117H329.838ZM335.896 115.916V112.652C335.896 112.402 335.846 112.186 335.744 112.002C335.646 111.814 335.498 111.67 335.299 111.568C335.1 111.467 334.854 111.416 334.561 111.416C334.287 111.416 334.047 111.463 333.84 111.557C333.637 111.65 333.477 111.773 333.359 111.926C333.246 112.078 333.189 112.242 333.189 112.418H332.105C332.105 112.191 332.164 111.967 332.281 111.744C332.398 111.521 332.566 111.32 332.785 111.141C333.008 110.957 333.273 110.812 333.582 110.707C333.895 110.598 334.242 110.543 334.625 110.543C335.086 110.543 335.492 110.621 335.844 110.777C336.199 110.934 336.477 111.17 336.676 111.486C336.879 111.799 336.98 112.191 336.98 112.664V115.617C336.98 115.828 336.998 116.053 337.033 116.291C337.072 116.529 337.129 116.734 337.203 116.906V117H336.072C336.018 116.875 335.975 116.709 335.943 116.502C335.912 116.291 335.896 116.096 335.896 115.916ZM336.084 113.156L336.096 113.918H335C334.691 113.918 334.416 113.943 334.174 113.994C333.932 114.041 333.729 114.113 333.564 114.211C333.4 114.309 333.275 114.432 333.189 114.58C333.104 114.725 333.061 114.895 333.061 115.09C333.061 115.289 333.105 115.471 333.195 115.635C333.285 115.799 333.42 115.93 333.6 116.027C333.783 116.121 334.008 116.168 334.273 116.168C334.605 116.168 334.898 116.098 335.152 115.957C335.406 115.816 335.607 115.645 335.756 115.441C335.908 115.238 335.99 115.041 336.002 114.85L336.465 115.371C336.438 115.535 336.363 115.717 336.242 115.916C336.121 116.115 335.959 116.307 335.756 116.49C335.557 116.67 335.318 116.82 335.041 116.941C334.768 117.059 334.459 117.117 334.115 117.117C333.686 117.117 333.309 117.033 332.984 116.865C332.664 116.697 332.414 116.473 332.234 116.191C332.059 115.906 331.971 115.588 331.971 115.236C331.971 114.896 332.037 114.598 332.17 114.34C332.303 114.078 332.494 113.861 332.744 113.689C332.994 113.514 333.295 113.381 333.646 113.291C333.998 113.201 334.391 113.156 334.824 113.156H336.084Z" fill="black"/>
</g>
</g>
</g>
<defs>
<filter id="filter0_d_75_4" x="222" y="-1" width="317" height="291" filterUnits="userSpaceOnUse" color-interpolation-filters="sRGB">
<feFlood flood-opacity="0" result="BackgroundImageFix"/>
<feColorMatrix in="SourceAlpha" type="matrix" values="0 0 0 0 0 0 0 0 0 0 0 0 0 0 0 0 0 0 127 0" result="hardAlpha"/>
<feMorphology radius="16" operator="dilate" in="SourceAlpha" result="effect1_dropShadow_75_4"/>
<feOffset dy="4"/>
<feGaussianBlur stdDeviation="7"/>
<feComposite in2="hardAlpha" operator="out"/>
<feColorMatrix type="matrix" values="0 0 0 0 0.310113 0 0 0 0 0.33059 0 0 0 0 0.404621 0 0 0 0.06 0"/>
<feBlend mode="normal" in2="BackgroundImageFix" result="effect1_dropShadow_75_4"/>
<feBlend mode="normal" in="SourceGraphic" in2="effect1_dropShadow_75_4" result="shape"/>
</filter>
<clipPath id="clip0_75_4">
<rect width="760" height="295" fill="white"/>
</clipPath>
<clipPath id="clip1_75_4">
<rect x="252" y="25" width="257" height="231" rx="6" fill="white"/>
</clipPath>
</defs>
</svg>
